<?xml version="1.0" encoding="utf-8"?>
<!-- Generator: Adobe Illustrator 26.0.1, SVG Export Plug-In . SVG Version: 6.00 Build 0)  -->
<svg version="1.1" id="Layer_1" xmlns="http://www.w3.org/2000/svg" xmlns:xlink="http://www.w3.org/1999/xlink" x="0px" y="0px"
	 viewBox="0 0 2000 1323.57" style="enable-background:new 0 0 2000 1323.57;" xml:space="preserve">
<style type="text/css">
	.st0{fill:#D59029;}
	.st1{fill:#CC7995;}
	.st2{fill:#BD4168;}
	.st3{fill:#3C2812;}
	.st4{fill:#6899A4;}
	.st5{fill:#596896;}
</style>
<g>
	<path class="st0" d="M343.58,893.48l2.27,170.21l2.28,116.74c0,8.45,1.14,16.88,1.14,26.73c0,5.63-1.14,11.25-5.7,12.65
		c-15.98,5.63-30.82,12.67-46.79,15.47c-18.26,5.63-37.67,9.86-57.06,12.67c-9.14,1.41-10.28-1.41-11.42-12.67l-23.96-11.25
		c-5.71-4.22-6.84-12.65-7.98-19.69c-3.43-16.88-5.71-35.16-8-52.04c-2.28-16.88-4.57-35.16-5.7-52.04
		c-2.28-22.51-4.57-43.61-4.57-66.1c-1.14-22.51-1.14-45.02-1.14-66.12v-8.43c-4.57-21.1-4.57-42.2-4.57-63.31
		c0-1.41,0-2.82-1.14-7.02h-23.96c-13.69-1.41-28.53-2.82-42.23-2.82c-6.85-1.41-12.55-1.41-18.26,0
		c-10.27,1.41-14.84-2.82-15.98-14.06c-2.28-12.67-4.57-25.33-7.98-36.57c0-2.82-3.43-5.63-5.71-7.04
		c-5.7-4.22-12.55-5.63-12.55-15.47c0-8.45,7.98-9.86,13.69-12.65c0-8.45,4.57-18.29-4.57-25.33c-1.14-1.41-1.14-8.45,0-9.86
		c6.85-5.61,5.71-15.47,6.85-22.49c0-9.86,1.14-19.69,2.28-29.55c3.41-19.69,6.84-22.49,22.82-23.9l84.45-5.63v-29.53
		c0-23.92-1.14-49.24,0-74.55c1.14-47.84-1.14-95.65-4.56-143.47c-2.28-43.61-1.14-87.21,3.41-129.41
		c3.43-35.16,12.57-70.33,26.26-102.68c17.11-42.2,42.23-75.96,74.18-101.29c20.53-16.88,44.51-25.31,67.33-32.35l22.82-7.04
		c15.98-7.02,33.1-7.02,50.22-5.61c12.55,1.41,25.1,0,37.66,0h15.98c11.42,1.41,13.69,5.61,14.84,19.69l3.43,30.94
		c5.71-8.45,2.28-21.1,12.55-23.92c0,7.04,1.14,12.67,1.14,18.29l3.43,75.96c0,12.65-1.14,23.92-2.28,36.57c0,2.82,0,5.63-2.28,7.04
		c-1.14,2.8-3.43,5.61-5.7,5.61c-8-1.41-12.57,12.67-21.69,8.45c-5.71-4.22-12.55-2.82-18.26,4.22c-6.84-5.63-13.69-5.63-20.53-4.22
		c-12.55,2.82-25.12,4.22-38.81,5.63c-15.98,2.8-29.67,9.84-41.08,23.9c-7.98,8.45-13.69,19.69-14.84,33.76
		c-4.56,25.33-7.98,50.65-11.41,77.37c-2.28,15.47-2.28,32.35-3.43,47.82v4.22c8,42.2,6.85,83,6.85,125.19
		c0,14.06,2.28,28.14,4.56,40.8c2.28,19.69,2.28,39.39,3.43,57.67c0,9.84,1.14,18.29,2.28,29.53c26.25-4.22,50.22-5.63,75.33-11.25
		c13.69-2.82,26.25,0,39.94,0c6.85,0,13.69,0,20.55,1.41c10.27,0,19.39-2.82,26.25,9.84c1.14,1.41,4.57,1.41,6.84,1.41
		c4.57,1.41,10.28,0,14.84,1.41c4.57,0,6.85,2.82,4.57,7.04c-2.28,5.61-3.43,15.47-10.27,16.88c-9.14,1.41-11.41,11.25-17.12,18.29
		c2.28,2.8,4.57,4.21,6.85,5.61c6.84,5.63,9.12,12.67,2.27,19.69c-6.84,7.04-6.84,15.47-6.84,23.92c0,9.84-1.14,19.69,0,28.12
		c0,5.63,1.14,9.86,3.43,14.06c3.41,7.04,3.41,12.67-1.14,18.29c-5.71,8.45-4.57,18.29-3.43,29.55c1.14,12.65-3.43,21.1-14.84,19.69
		c-10.27,0-20.55,0-30.82-1.41c-18.26-2.82-37.66,0-57.06,2.82c-14.84,2.82-30.82,2.82-46.79,5.61H343.58z M70.81,697.97
		c0,7.04-1.14,12.67-1.14,19.69C75.38,707.82,75.38,706.41,70.81,697.97z M90.22,719.07c6.84,0,12.55,0,18.26-1.41
		c-4.57-2.82-10.28-1.41-11.42-9.84c0-1.41-4.56-2.82-6.84-4.22V719.07z M115.32,772.52c0-1.41,0-2.82,0-2.82
		c-6.84-2.82-14.84-4.22-22.82-5.61c0,5.61,0,8.43,1.14,12.65L115.32,772.52z M95.92,847.07l-3.41,12.65
		c12.55,0,23.96-4.22,34.23-12.65H95.92z M111.89,740.17c-4.56-1.41-7.98-1.41-12.55-1.41c3.43,7.04,8,4.22,12.55,4.22
		C111.89,741.58,111.89,740.17,111.89,740.17z M125.59,758.46c10.28,5.63,20.55,5.63,31.96,0
		C146.14,748.6,135.87,755.64,125.59,758.46z M135.87,859.72c11.41-1.41,22.82,1.41,33.09-7.02
		C157.55,852.7,146.14,844.25,135.87,859.72z M149.56,706.41c5.7,0,12.55,1.41,18.26,1.41v-1.41H149.56z M170.1,797.84l-11.41,11.25
		c4.57,0,8,0,12.55,1.41C171.24,804.87,171.24,800.66,170.1,797.84z M243.14,163.47c3.43,0,6.85,4.22,10.28,5.63
		c1.14-1.41,2.28-5.63,4.56-8.45l19.41-30.94c2.28-2.82,5.71-7.04,11.41-2.82c0,4.22,0,8.43-1.14,14.06l28.53-22.51l-3.41-16.88
		l-6.85,2.82c-27.39,14.06-50.21,35.16-70.76,61.9c0,1.41,0,2.82-1.14,4.22c-2.28,2.8-5.71,5.61-7.98,9.84
		c-14.84,25.33-25.12,53.45-31.96,82.98c-5.71,23.92-9.14,47.84-9.14,73.14c3.43-15.47,4.57-32.35,9.14-49.23
		c4.56-21.1,9.12-42.2,17.12-63.29c5.7-18.29,14.84-35.18,23.96-53.45L243.14,163.47z M189.5,461.66c0,0-1.14,0-2.28,0
		c-1.14,5.63-1.14,9.86,2.28,16.88V461.66z M190.65,606.54c-1.14,26.73-2.28,52.04,0,77.37c6.85,0,6.85-2.82,6.85-8.45
		L190.65,606.54z M189.5,425.08c0-7.02,4.57-15.47,0-22.49V425.08z M190.65,709.23c4.57,2.8,4.57,2.8,11.41,1.41
		C197.5,703.6,197.5,702.19,190.65,709.23z M191.79,789.4c0,7.04-1.14,11.26-1.14,15.47C195.22,797.84,195.22,797.84,191.79,789.4z
		 M203.2,285.84c-3.43,18.29-5.7,36.57-7.98,53.45C204.34,323.82,205.48,305.53,203.2,285.84z M212.32,773.93l-3.41-18.29
		c-4.57,0-8,1.41-11.41,1.41v1.41c3.41,1.41,7.98,4.22,12.55,4.22c-1.14,5.61-1.14,8.43-1.14,11.25H212.32z M199.77,834.41
		c3.43,5.61-1.14,15.47,8,18.29C208.91,834.41,207.77,834.41,199.77,834.41z M206.63,453.23c0-2.82,0-4.22-1.14-7.04
		c-5.71,18.29-3.43,146.29,2.28,178.64C215.75,568.56,206.63,510.9,206.63,453.23z M206.63,802.05c5.7-2.8,10.27-2.8,13.69-5.61
		c2.28,0,4.57-2.82,4.57-5.63c0-1.41-2.28-4.22-4.57-4.22c-4.57,0-10.27,0-15.98,1.41L206.63,802.05z M206.63,890.68h-1.14
		c0,14.06,1.14,15.47,1.14,16.88l5.7,66.1c1.14,14.06,2.28,28.12,4.57,42.2c1.14-4.22,2.28-7.04,2.28-11.26l-10.27-98.45
		c0-1.41-2.28-1.41-3.43-2.82C205.48,899.11,206.63,894.89,206.63,890.68z M216.89,942.72c1.14,0,1.14-1.41,2.28-1.41l-7.98-71.74
		c-1.14,0-2.28,1.41-2.28,1.41L216.89,942.72z M222.6,834.41h-12.55l2.27,16.88l10.28-4.22V834.41z M211.2,814.72
		c4.56,2.82,10.27,5.61,12.55-4.22L211.2,814.72z M212.32,1135.42h1.14v-23.92h-1.14V1135.42z M213.47,865.35l5.71,40.8
		c5.71-11.26,3.43-23.92,3.43-35.16L213.47,865.35z M224.89,450.41c10.27-23.92,11.41-28.12,1.14-36.57
		C221.46,423.68,221.46,441.96,224.89,450.41z M223.75,681.09c5.7-11.25,4.56-28.12,0-40.8V681.09z M223.75,717.66
		c4.56-4.22,4.56-7.02,0-11.25V717.66z M232.87,591.07c2.28-18.29,2.28-36.57,4.57-54.86c2.28-12.65,2.28-25.31-4.57-37.98
		C224.89,530.59,231.73,560.13,232.87,591.07z M239.73,184.57c0,0-1.14-1.41-2.28-1.41c-4.57,5.61-9.14,12.65-8,23.9L239.73,184.57z
		 M236.3,1170.58c1.14-5.63,2.28-9.84,2.28-14.06s1.14-9.86-4.57-12.67c0,9.86,0,18.29,1.14,25.33
		C235.16,1169.18,236.3,1169.18,236.3,1170.58z M242,1115.73c8,0,5.71-5.63,5.71-9.84c-1.14-39.39-2.28-80.18-4.57-119.57
		c0-2.82-1.14-5.61-2.27-8.43C237.44,1024.3,234.01,1070.72,242,1115.73z M254.56,665.62c1.14-2.82,3.41-7.04,3.41-9.84l-5.7-75.96
		c-3.43,16.88-2.28,77.35,0,85.8H254.56z M254.56,759.86c-1.14,1.41-2.28,2.82-3.43,2.82l3.43,4.21c0,0,1.14-1.41,2.27-2.8
		L254.56,759.86z M254.56,1045.4c1.14,0,2.27,0,2.27,0c2.28-8.45,3.43-15.47,4.57-23.92c1.14-16.88,2.28-33.76,2.28-50.63
		c1.14-5.63,0-11.25,0-18.29c-4.57,11.25-1.14,25.33-12.55,30.94L254.56,1045.4z M253.42,786.58h2.28c0-4.21,1.13-7.02,1.13-9.84
		c0,0-2.27-1.41-3.41-1.41V786.58z M259.12,569.96c3.43-12.65,4.57-25.31,4.57-37.98c1.14-5.61-2.28-8.43-9.12-8.43
		C256.83,540.43,257.98,555.9,259.12,569.96z M263.69,927.24c0,4.22,0,7.04,1.14,9.86c0,0,0-1.41,1.14-1.41
		c0-2.82-1.14-5.63-1.14-8.45H263.69z M269.4,437.76c-3.43,8.43-4.57,18.29-2.28,29.53C272.81,457.45,269.4,447.59,269.4,437.76z
		 M275.1,1150.89c-1.14,0-1.14,0-1.14,0v11.25c0,0,0,0,1.14,0V1150.89z M276.24,1039.77c-5.7,28.14,2.28,54.86,0,85.8V1039.77z
		 M276.24,969.44c-1.14,15.47-1.14,30.94,0,45.02l5.71,104.08c0,4.22,1.14,8.43,1.14,14.06v32.35l-3.43,30.96
		c9.12-1.41,6.84-8.45,7.98-14.08c1.14-25.31-1.14-50.63,0-77.35c0-40.8-3.41-84.41-5.7-126.59c0-2.82-1.14-5.63-2.28-8.45H276.24z
		 M289.93,464.47c-1.14,25.33-4.57,49.23,2.28,74.55C291.08,513.7,289.93,489.8,289.93,464.47z M291.08,226.76l14.84-42.19
		c-1.14,0-2.28,0-3.43-1.41c-11.41,9.84-10.27,28.12-13.69,42.19C289.93,225.35,289.93,225.35,291.08,226.76z M291.08,610.76
		c-1.14,0-1.14,0-1.14,0v9.86c0,0,0,0,1.14,0V610.76z M310.48,312.57c-1.14,0-1.14-1.41-2.28-1.41
		c-5.71,19.69-13.69,39.39-17.12,61.88l9.12-7.02L310.48,312.57z M302.49,1145.26c2.28-11.25,4.57-23.9,1.14-35.16
		C299.07,1121.36,301.34,1134.01,302.49,1145.26z M311.62,800.66c0-4.22,1.14-11.26-6.85-8.45c0,7.04,0,14.06,1.14,22.51
		C315.04,813.31,311.62,806.27,311.62,800.66z M305.91,896.29c0,0,0,0,1.14,0v-8.43c-1.14,0-1.14,0-1.14,0V896.29z M308.2,1204.34
		c5.71,0,9.12-1.41,5.71-9.84C308.2,1195.91,305.91,1198.71,308.2,1204.34z M308.2,952.56v4.22c5.71-16.88,1.14-32.35,0-47.84
		V952.56z M315.04,897.7c1.14-9.84,2.28-19.69-1.13-29.53C311.62,878.01,311.62,887.86,315.04,897.7z M318.46,669.84h-1.14
		l-2.28,9.84h3.43V669.84z M319.61,970.85h2.28c0-2.82-1.14-5.63-1.14-8.43l-1.14,1.39V970.85z M328.75,1022.89
		c-2.28,14.06-8,28.14-6.85,43.61c0,19.69,1.14,40.78,1.14,61.88c0,8.45,2.28,16.88,5.71,23.92
		C328.75,1110.09,335.59,1066.5,328.75,1022.89z M323.03,1160.75c1.14,4.21,2.28,8.43,2.28,12.65h2.28
		c-1.14-4.22-2.28-8.45-2.28-14.06C324.18,1160.75,324.18,1160.75,323.03,1160.75z M329.87,267.55c2.28-4.22,4.57-8.43,8-12.65
		C328.75,259.12,328.75,259.12,329.87,267.55z M332.16,979.29c-3.41,22.49-3.41,22.49,0,33.76V979.29z M333.3,138.14
		c5.71,2.82,9.14,0,10.28-7.02c-3.43,1.41-6.85,2.82-10.28,5.61V138.14z M340.16,149.4c0,7.02,0,11.25-1.14,16.88
		c6.84-1.41,12.55-2.82,13.69-11.26L340.16,149.4z M350.42,757.05v-1.41h-11.41v1.41H350.42z M374.38,803.46
		c-9.12-12.65-27.39-9.84-35.37,5.63C351.57,809.09,362.97,806.27,374.38,803.46z M421.18,851.29
		c-20.53,7.02-41.08,12.65-61.63,14.06c-4.56,0-9.12,1.41-14.84,2.82l-4.56,8.43c30.82,0,58.2-9.84,85.59-12.65
		c3.43-5.63,5.7-11.25,7.98-16.88L421.18,851.29z M366.4,697.97c20.55,4.22,43.37,4.22,65.04,1.41
		C409.77,692.35,386.95,692.35,366.4,697.97z M405.2,117.04c-12.55,1.41-23.96,9.86-35.37,16.9
		C384.67,135.33,394.93,125.49,405.2,117.04z M393.79,783.76c-2.28,1.41-4.57,1.41-9.12,1.41
		C390.36,787.99,390.36,787.99,393.79,783.76z M385.81,170.51c12.55-2.82,23.96-2.82,36.51-7.04
		C409.77,156.43,394.93,159.24,385.81,170.51z M386.95,802.05c3.41,1.41,5.7,4.22,10.27,7.04
		C393.79,800.66,393.79,800.66,386.95,802.05z M400.64,721.88c7.98,7.02,25.1,8.43,34.23,2.82L400.64,721.88z M437.16,204.26
		c-12.55,4.21-22.82,9.84-33.1,14.06v2.82c11.42-1.41,21.69-4.22,33.1-7.04c0-1.41,1.14-2.82,0-4.22V204.26z M416.62,792.21
		c5.7,0,10.27-2.82,14.82-11.25c-9.12,0-15.97,1.41-22.82,1.41C408.63,789.4,412.05,792.21,416.62,792.21z M424.61,122.67
		l-7.98,4.22c1.13,1.41,1.13,2.82,1.13,2.82c3.43-1.41,5.71-2.82,9.14-2.82L424.61,122.67z M426.89,745.8c0,1.39-1.14,2.8-1.14,2.8
		l20.53,4.22c1.14-4.22,1.14-7.02,1.14-11.25L426.89,745.8z M426.89,825.97v1.41h7.98v-1.41H426.89z M434.87,157.84
		c-1.14,0-4.56,2.82-4.56,4.22c0,5.63,3.41,5.63,6.84,4.22C437.16,163.47,440.59,159.24,434.87,157.84z M446.28,84.69v5.63h8v-2.82
		L446.28,84.69z M454.28,169.1c0-4.22-1.14-8.45-1.14-12.67c-4.57,4.22-5.71,8.45-2.28,12.67H454.28z M449.71,209.88
		c3.43-11.25,3.43-11.25,0-16.88V209.88z M474.83,793.62c0-7.04-1.14-11.25-1.14-16.88c-5.71,5.63-12.57,5.63-15.98,15.47
		C464.55,792.21,469.12,792.21,474.83,793.62z M461.12,131.12c-1.13,0-2.27,0-2.27,0v7.02c1.14,0,2.27,0,2.27,0V131.12z
		 M459.99,862.54c3.41,2.82,6.84,4.22,10.27,4.22c6.84,0,7.98-1.41,7.98-12.65L459.99,862.54z M463.4,190.18
		c-4.56,16.88-4.56,19.69,3.43,25.33L463.4,190.18z M465.69,706.41c6.85,0,12.55-1.41,19.41-2.82c-6.85-4.22-13.69-2.82-19.41,0
		C465.69,705.01,465.69,706.41,465.69,706.41z M475.96,807.68c0-1.41,0-2.82-1.13-4.22c-2.28,0-5.71,1.41-9.14,2.82v1.41H475.96z
		 M478.24,152.22c0-2.82,0-5.63-1.14-8.45h-2.27c1.13,2.82,1.13,5.63,1.13,8.45C477.1,152.22,478.24,152.22,478.24,152.22z
		 M480.53,221.14c0-12.67,2.28-25.33-2.28-37.98C474.83,202.85,475.96,214.1,480.53,221.14z M494.22,131.12h-1.14v59.06h1.14V131.12
		z"/>
	<path class="st1" d="M916.67,527.15l-2.29,53.44c-1.52,45.8-12.21,88.55-32.06,129.78c0,0.76-0.76,1.52-0.76,2.28
		c-6.87,22.14-20.61,41.99-29.01,64.13c-5.34,13.74-14.51,25.19-25.19,35.88c-16.79,19.08-44.28,32.83-67.19,42.75
		c-10.68,4.58-22.13,5.34-34.35,4.58l-24.43-3.05c-2.29-0.76-5.34-0.76-7.62,0c-4.58,2.28-9.17,3.05-13.75,3.05
		c-31.29,0-67.17-34.35-78.63-61.83c-5.33-13.74-12.21-25.96-19.08-38.93c-29.76-58.78-39.69-123.67-42.74-188.56
		c-0.76-22.14,0-44.28,3.81-65.65c3.06-22.14,5.35-44.28,9.17-65.66c11.44-58.02,44.27-121.37,87.02-161.83
		c1.52-1.53,3.05-2.29,3.81-3.82c7.64-11.45,36.64-32.82,50.39-38.17c13.74-6.87,29-8.4,44.27-6.1l20.6,3.06
		c40.46,6.87,48.1,12.21,79.39,33.58c3.06,1.53,6.11,3.82,8.41,6.1c7.63,4.58,12.21,10.69,17.56,16.8c0.76,1.53,0.76,3.05,1.53,3.81
		c22.9,22.9,37.4,85.51,41.22,116.03c1.53,8.41,2.29,16.8,3.05,25.2l3.06,31.3c1.52,19.08,2.28,38.17,3.05,57.25
		c0.76,1.53,0,3.06,0,4.58H916.67z M551.02,551.59c0-0.76,0.76-2.29,0-3.82c-2.29-6.1,0-12.21,0.76-18.32
		c0-0.76,0.76-2.29,0.76-3.06c-0.76-0.75-1.53-2.28-1.53-3.05c-3.82,22.14-2.29,43.51-2.29,65.65L551.02,551.59z M557.13,663.04
		h1.52c0-1.52-0.76-3.81-0.76-5.34c0-7.63-0.75-15.26-0.75-22.9c0-4.58,0.75-4.58-4.58-6.87L557.13,663.04z M554.84,512.65
		c3.05-19.08,6.1-38.93,9.91-58.02c-6.1,18.32-11.44,37.4-11.44,58.02H554.84z M556.36,566.85c-0.76,19.08-4.58,38.17,2.28,57.25
		L556.36,566.85z M557.88,554.64v-3.82V554.64z M564.75,651.59c-0.76,0.76-1.53,0.76-1.53,0.76c4.58,29.77,11.46,59.54,22.14,88.55
		c3.82-1.53,4.58-3.06,3.06-5.35L564.75,651.59z M573.16,514.95c-6.11,11.44-3.06,24.42-3.06,36.64
		C570.86,539.37,573.92,527.15,573.16,514.95z M572.39,401.2c8.4-12.21,9.91-15.26,6.87-20.61L572.39,401.2z M583.83,408.83
		c0.76,0,1.53,0.76,2.29,0.76l-5.34,12.22l4.58-2.29l8.41-21.37c-4.58,2.28-8.41,4.58-12.98,6.1c-0.76,3.82-2.29,6.87-3.06,11.45
		L583.83,408.83z M585.36,543.96c0.76-9.92,1.53-18.32,3.06-27.49C584.6,521.81,583.83,528.68,585.36,543.96z M607.5,745.49
		c-6.11-22.9-12.97-45.8-19.85-67.94c0-0.76-0.76-0.76-1.53-1.53C585.36,689,600.64,737.85,607.5,745.49z M587.66,392.04
		c6.11-1.53,7.64-5.34,5.35-12.22L587.66,392.04z M593,557.69v-5.34V557.69z M593.77,763.04c3.05,3.82,3.81,7.63,7.62,9.16
		C599.11,769.15,599.11,764.57,593.77,763.04z M595.3,538.61c-0.76,0-0.76,0-0.76-0.76v6.11c0,0,0,0,0.76,0V538.61z M601.39,641.67
		v-30.54c-3.05,6.1-4.58,23.66-3.05,28.24L601.39,641.67z M598.34,508.83h1.53c0-1.53,0-3.81-0.76-5.34h-0.76V508.83z
		 M615.91,777.55l-6.88-9.16c-2.29-3.06-4.58-6.11-6.11-9.16c-0.76,0-1.53,0.76-2.28,0.76c4.58,6.87,8.4,12.97,13.74,18.32
		C615.14,778.31,615.14,777.55,615.91,777.55z M603.68,407.31l3.06-6.11c0,0-0.76,0-1.53-0.76c-0.76,2.29-1.53,3.82-3.06,5.35
		C602.92,406.55,603.68,406.55,603.68,407.31z M607.5,459.21c-0.76,0-0.76-0.76-1.53-0.76l-3.06,9.16c0.76,0,0.76,0.76,1.53,0.76
		L607.5,459.21z M606.74,563.8c3.06-12.22,5.35-25.2,5.35-38.17c0-9.92-0.76-19.85,6.1-28.25c0.76-0.75,0.76-2.28,0.76-3.05
		l1.53-16.8c-6.1,8.41-8.4,12.22-9.92,19.09l-2.29,17.56c-4.58,21.38-3.06,43.51-3.82,65.65L606.74,563.8z M618.96,792.81
		c-4.58-4.58-6.87-10.69-14.51-12.22C609.03,787.47,611.32,789.77,618.96,792.81z M605.21,674.49c1.53,5.35,3.82,9.92,5.35,14.51
		c0.76,0,1.53-0.76,1.53-0.76c-1.53-4.58-3.82-9.16-5.35-14.51C605.98,674.49,605.21,674.49,605.21,674.49z M622,363.03
		c-6.09,8.4-9.91,18.32-12.97,28.24C615.14,386.7,621.24,372.19,622,363.03z M620.48,400.43c-4.58,11.45-7.63,23.67-9.92,37.41
		c11.44-15.27,12.97-32.83,19.08-48.1C625.06,392.04,622,396.62,620.48,400.43z M612.09,729.46c-0.76,0-0.76,0-1.53,0.76l3.06,9.92
		h1.53L612.09,729.46z M610.56,805.03c0.76,1.53,1.53,3.82,3.06,5.34c16.79,20.61,30.53,36.65,58.78,43.52
		c4.58,1.53,9.91,1.53,14.5,0c-6.88-3.06-12.97-5.35-20.61-7.63c-14.5-3.82-26.72-12.22-37.4-22.14
		c-6.88-5.34-11.45-12.98-17.56-19.08H610.56z M638.04,785.95c-5.34-1.53-6.87-5.35-9.16-9.16c-2.29-4.58-5.35-6.87-10.69-9.92
		c6.87,14.5,14.51,22.9,27.48,26.72C643.38,790.52,641.09,786.71,638.04,785.95z M619.72,347c6.87-6.87,8.4-9.92,6.1-16.79
		L619.72,347z M622.77,458.45h-1.53c0,1.53-0.75,3.06-0.75,4.58h0.75L622.77,458.45z M622,662.28c2.29,6.1,4.58,10.68,6.88,15.26
		C628.12,666.09,628.12,665.33,622,662.28z M624.3,305.01c2.29-1.53,3.82-3.81,5.35-5.34c-3.06,0.76-4.58,2.28-6.11,4.58
		L624.3,305.01z M628.12,549.29l-2.29,19.08h2.29c0-6.1,0.76-12.98,0.76-19.08H628.12z M626.59,505.02v-3.06V505.02z M628.88,617.24
		h-1.53c1.53,17.56,4.58,35.12,9.16,51.91L628.88,617.24z M628.12,384.41c6.88-4.58,12.97-8.4,15.26-16.03
		C632.7,375.25,629.64,378.3,628.12,384.41z M633.46,772.2c0,0,0.76-0.76,1.53-0.76c0.75-4.58-1.53-7.63-6.11-9.92L633.46,772.2z
		 M637.28,611.13c0.76-21.38,2.29-41.99,3.81-63.37l9.17-70.99c-0.76,0.75-1.53,1.52-1.53,2.28c-5.35,31.3-11.45,62.6-16.03,93.9
		c-2.29,12.21-3.06,25.19,1.53,37.4c0.76,0.76,0,1.53,0,3.06c-1.53,4.58,0,12.21,3.05,16.03
		C637.28,623.35,636.51,617.24,637.28,611.13z M643.38,311.12c-3.81,3.06-7.63,6.11-11.44,9.92
		C637.28,322.57,638.04,321.8,643.38,311.12z M663.23,835.57c-9.15-6.87-16.79-16.04-29-18.32
		C642.62,824.88,651.78,831.75,663.23,835.57z M638.04,636.32c-0.76-2.29-0.76-3.81-0.76-6.1c0,2.29,0,3.81-0.76,6.1H638.04z
		 M639.57,647.77c0-1.53,0-3.06-0.76-4.58h-0.76c0,1.52,0,3.05,0.76,4.58H639.57z M641.09,394.33c0.76,0,1.53,0.76,1.53,0.76
		l1.53-4.58c0-0.76-0.76-0.76-0.76-0.76L641.09,394.33z M644.91,777.55c0,0,0.76-0.76,0.76-1.53l-3.82-2.29
		c-0.76,0.76-0.76,0.76-0.76,1.53L644.91,777.55z M642.62,666.09c1.53,16.04,3.06,30.54,15.27,42.75L642.62,666.09z M644.14,355.4
		c0.76,0.76,0.76,1.53,1.53,1.53c2.29,0,3.06-1.53,3.82-3.82l-0.76-0.76L644.14,355.4z M649.49,789.77
		c1.53-5.35-0.76-6.11-5.35-5.35L649.49,789.77z M645.67,627.16c3.82,48.86,22.14,122.15,82.45,122.15c7.63,0,19.85-0.76,25.19-5.35
		c13.74-13.74,25.95-28.24,33.59-46.56c26.72-69.47,31.29-134.35,31.29-207.64c0.76-20.61-2.28-41.22-9.15-61.07
		c-3.82-11.44-9.17-22.13-12.23-33.58c-6.86-20.61-22.9-45.04-44.26-51.91c-6.88-1.53-13.75-1.53-19.85-3.05
		c-7.64-1.53-12.99,0-17.57,4.58c-7.63,7.63-16.04,16.03-21.37,25.95c-38.93,65.66-45.05,165.65-48.1,239.71
		C645.67,616.47,644.91,621.82,645.67,627.16z M651.78,369.9l-4.58,11.45l0.76,0.76c2.29-3.81,3.82-7.63,6.11-10.69L651.78,369.9z
		 M654.08,276c-3.06,0.76-5.35,1.53-5.35,4.58L654.08,276z M656.36,334.78c0-0.76-0.76-0.76-0.76-1.53
		c-1.52,2.29-2.28,4.58-3.81,6.11c0.76,0,0.76,0.76,1.53,0.76L656.36,334.78z M651.78,466.09c2.29-6.88,3.81-14.51,5.34-21.38
		c2.29-7.63,3.81-14.51,5.34-22.14C656.36,436.32,654.08,451.58,651.78,466.09z M660.94,285.16l-7.62,9.92l0.76,0.76l16.79-6.87
		L660.94,285.16z M706.74,818.01c-0.76,0-1.53-0.76-2.29-0.76c-12.21-2.29-22.14-7.64-32.06-14.51c-4.58-3.06-9.93-6.87-16.8-5.34
		c2.29,2.28,3.06,4.58,5.34,5.34c15.27,6.87,29.78,13.74,46.57,17.56C706.74,818.77,706.74,818.77,706.74,818.01z M657.12,358.45
		c3.05,0,3.81-2.29,5.34-3.82l-1.53-1.53L657.12,358.45z M657.12,383.64c6.1-8.4,10.69-16.03,10.69-25.95
		C663.23,363.79,657.89,377.54,657.12,383.64z M658.65,732.5c-0.76,6.88-0.76,6.88,6.87,9.16
		C663.23,737.85,660.94,735.56,658.65,732.5z M659.42,774.49c0.75,6.1,6.1,5.35,9.16,6.1C666.28,778.31,663.99,775.26,659.42,774.49
		z M670.87,317.99l9.15-12.98c2.29-2.29,2.29-4.58,0-7.63c-7.62,3.06-16.79,18.32-17.56,33.58
		C664.76,326.39,667.81,321.8,670.87,317.99z M663.23,267.61c0,0,0,0,0,0.76l4.58-3.06c0-0.76,0-0.76-0.76-0.76L663.23,267.61z
		 M663.23,721.82c3.06,8.41,7.64,16.04,15.27,21.38C674.69,734.8,669.34,727.93,663.23,721.82z M673.16,330.21
		c-5.35,3.05-6.88,8.4-8.41,13.74C670.87,340.89,671.63,335.55,673.16,330.21z M670.87,276c1.53-0.76,3.06-0.76,3.82-1.53
		c1.52-3.05,5.33-3.81,8.39-3.81c4.58-0.76,5.35-3.82,6.88-8.41c-7.64,3.82-15.26,5.35-19.85,11.45
		C670.87,274.48,670.87,275.24,670.87,276z M671.63,396.62l10.68-23.67c-0.76-0.76-1.53-0.76-1.53-0.76
		c-7.62,6.11-6.86,16.04-10.68,23.67C670.1,396.62,670.87,396.62,671.63,396.62z M672.4,262.26c9.15-1.52,17.56-10.68,27.47-6.1
		c2.29-1.53,3.82-3.06,5.35-5.34C696.82,247.76,681.55,253.1,672.4,262.26z M672.4,815.72c8.39,9.16,34.35,17.56,50.38,16.03
		L672.4,815.72z M696.82,808.09c-4.58-6.88-10.69-11.45-19.08-10.69C680.78,802.74,689.95,807.32,696.82,808.09z M688.42,839.38
		c-1.53-3.05-3.82-6.1-9.92-5.34L688.42,839.38z M683.84,319.52c-2.29,2.28-2.29,3.81-2.29,8.4c9.17-7.63,18.32-15.27,29.78-19.85
		c3.81-1.53,4.58-5.35,6.87-9.92C704.45,304.25,694.53,311.88,683.84,319.52z M693.77,284.4c0-0.76,0-0.76-0.76-1.53
		c-3.06-0.76-6.11-2.28-9.17,3.06L693.77,284.4z M684.6,744.72c1.53,8.4,3.82,9.16,12.98,6.87L684.6,744.72z M688.42,308.83
		c5.35-3.06,9.92-6.88,16.79-11.45c-7.63-0.76-12.97-4.58-19.08-2.29C686.13,299.67,684.6,305.01,688.42,308.83z M722.77,789.77
		v-2.29c-10.68-1.53-20.61-3.82-31.29-6.11c-1.53,0-3.06,0.76-5.35,1.53c5.35,4.58,9.92,6.88,16.03,6.88H722.77z M690.72,767.63
		c8.39,7.63,17.56,10.69,24.42,7.63L690.72,767.63z M695.29,354.63h0.76c6.1-6.1,11.45-12.98,17.57-19.85
		c-5.35,0-9.93,0.76-12.23,5.35L695.29,354.63z M738.05,247l-9.92-5.34c-1.53-0.76-3.06-2.29-4.58-1.53
		c-6.87,0.76-14.5,2.29-22.9,4.58C712.86,250.82,725.06,247,738.05,247z M747.97,316.46c-3.06-3.06-4.58-7.63-9.92-6.1
		c-9.92,3.81-19.09,8.4-28.24,15.26L747.97,316.46z M710.57,763.81v0.76c3.06,0,5.34,0,8.39-0.76H710.57z M712.09,275.24
		c0.76,0,0.76,0.76,1.53,0.76h3.05c0.76,0,0.76-0.76,1.53-0.76H712.09z M722.77,820.29c-6.1-3.05-6.1-3.05-9.15,1.53
		C720.48,824.88,720.48,824.88,722.77,820.29z M744.91,255.39c-3.82-0.76-6.87-1.53-10.69-1.53c-3.05-0.76-6.1-0.76-9.92-0.76h-9.16
		v2.29H744.91z M719.72,843.96v-0.76h-4.58c0,0,0,0,0,0.76H719.72z M716.67,283.64c0,0.76,0,1.53-0.76,1.53
		c3.05,0.76,6.1,1.53,8.4,1.53c0.76-0.76,0.76-1.53,0.76-1.53L716.67,283.64z M738.05,271.43c-6.1-3.82-12.22-4.58-19.85-1.53
		L738.05,271.43z M718.95,763.81c3.06,2.29,3.06,2.29,8.41,1.53L718.95,763.81z M724.3,298.91l-3.82,6.1l10.7-2.29L724.3,298.91z
		 M734.22,276.77h-4.58H734.22z M753.31,289.75c-4.58,0-9.92-2.29-16.03-0.76c6.1,3.05,13.74,5.34,20.6,5.34
		c4.58,0,9.17-1.53,12.23-3.05L753.31,289.75z M889.95,649.3l-1.52,9.92c-0.76,1.53-2.29,3.06-3.06,5.34
		c-1.53,6.11-3.82,12.98-6.11,19.08l-16.03,45.81c-8.4,25.19-21.38,47.33-40.46,66.41c-1.53,1.53-3.06,3.06-3.06,4.58
		c0.76,3.82-1.53,6.11-3.81,7.64c-2.29,1.52-4.58,3.05-6.87,5.34c-7.64,7.63-16.04,12.98-25.96,17.56
		c-12.21,5.35-25.95,9.16-38.17,16.04l-6.87,3.81v1.53c6.87-1.53,13.74-2.29,19.84-4.58c31.31-12.22,73.29-37.41,87.03-70.23
		c9.92-22.9,22.9-44.28,31.29-67.18c3.82-12.22,9.93-23.67,13.74-35.89c3.82-10.69,6.1-22.13,9.16-32.82v-4.58
		c-3.06,6.11-6.1,11.45-8.4,17.56c0-1.53,0.76-2.28,0.76-3.05c3.81-11.45,6.87-22.14,9.92-33.59c-3.06,0-3.06,3.06-3.06,4.58
		C895.29,630.98,893.01,640.14,889.95,649.3z M738.8,779.84c3.06,1.52,6.11,2.28,9.17,2.28c4.58,0,9.16-1.53,12.21-4.58
		L738.8,779.84z M739.56,324.1c0,0,0,0.76,0.76,1.53l12.23-2.29v-1.53L739.56,324.1z M754.07,796.63
		c-4.58-3.06-5.34-2.29-13.74,2.29L754.07,796.63z M741.86,771.44c5.35,1.53,9.17,0.76,16.79-3.81
		C752.55,766.1,747.21,770.67,741.86,771.44z M783.08,328.68l-10.68-6.11c-6.11,1.53-11.46,3.82-16.04,5.35
		C764,330.21,776.98,330.96,783.08,328.68z M757.13,244.7v0.76c3.05,0,6.1-0.76,9.16-0.76H757.13z M786.14,720.3h-0.76l-28.24,33.58
		c3.81,0.76,6.87-0.76,9.16-3.81l15.26-21.38L786.14,720.3z M758.65,822.59l3.82-2.29c-2.29,0-3.82,0-4.58,0.76
		C757.88,821.82,757.88,821.82,758.65,822.59z M758.65,801.97c0.76,0,0.76,0.76,0.76,1.53c3.82,0.76,6.88,0,9.17-1.53v-2.29
		L758.65,801.97z M781.55,823.35c-6.87,2.29-14.5,0.76-19.85,6.1C769.35,830.22,776.21,828.7,781.55,823.35z M766.29,244.7
		c0,2.29,0.76,5.35,3.82,5.35c7.62,2.29,15.26,3.81,23.66,5.34v-1.53L766.29,244.7z M771.64,814.95c9.15,0.76,9.15,0.76,9.91-3.82
		C774.69,811.9,774.69,811.9,771.64,814.95z M772.4,275.24c6.86,3.82,7.62,3.82,10.68,0H772.4z M796.82,370.66l-9.15-25.19
		l-3.06-3.06l-12.21-2.28L796.82,370.66z M773.16,300.44c0,0.76,0.76,1.52,0.76,2.28l3.81-2.28l-1.52-2.29L773.16,300.44z
		 M801.4,724.11l1.53-3.81c-2.29,0-3.82-0.76-5.35-0.76c-3.81,5.34-7.62,9.92-10.68,15.26c-1.53,3.82-3.82,7.63-4.58,11.45
		c0,3.82-0.76,6.87-3.06,10.69C784.61,754.65,796.06,737.85,801.4,724.11z M792.24,279.82c0-3.06,1.53-7.64-4.58-6.11L792.24,279.82
		z M801.4,305.78l-6.87-15.26c-0.76-1.53-3.05-1.53-5.34-2.29c2.29,10.69,5.34,19.85,13.74,27.48
		C802.17,311.12,802.17,308.07,801.4,305.78z M800.64,758.47c-4.58,4.58-8.4,12.21-9.91,20.61
		C800.64,772.2,801.4,770.67,800.64,758.47z M798.35,694.34c-0.76-0.76-0.76-0.76-1.53-0.76l-1.52,6.11h0.76L798.35,694.34z
		 M821.25,268.37c-10.68-8.4-13.74-9.16-18.32-7.63C809.81,263.02,812.09,272.18,821.25,268.37z M819.72,598.92
		c0,0,0.76,0,1.53,0.76c2.29-6.1,4.58-12.22,5.35-19.85c0-19.08,1.53-38.17,2.29-58.02c0-9.92,0-19.85-0.76-29.01
		c0-9.16-0.76-18.32-0.76-26.72c0-26.73,0-26.73-10.7-51.15l-10.68-23.67c-0.76,0-0.76,0-1.53,0.76l8.4,22.9
		c8.4,20.61,13.74,42.74,12.98,65.65c0,23.67-0.76,47.33-1.53,71c0,4.58-0.76,9.16-1.53,13.74L819.72,598.92z M808.28,327.92
		c0-0.76,0.76-0.76,0.76-0.76l-2.29-4.58c0,0-0.76,0-0.76,0.76L808.28,327.92z M806.75,779.84c9.16-3.06,10.68-9.17,9.91-16.8
		L806.75,779.84z M811.34,675.25c1.52-3.05,3.05-6.1,3.81-9.16l6.87-24.42c3.06-6.88,3.06-14.51,1.53-21.38
		c-6.11,17.56-10.69,35.88-13.74,54.2C809.81,674.49,810.57,675.25,811.34,675.25z M832.7,774.49
		c-20.61,16.79-21.37,16.79-21.37,23.67C820.49,791.29,827.36,783.65,832.7,774.49z M836.51,402.73c2.29-6.1,1.53-10.69-3.05-16.03
		c-6.1-6.88-10.69-14.51-15.27-22.14c-2.28-2.29-3.81-4.58-5.34-6.87C815.15,366.85,830.42,397.39,836.51,402.73z M819.72,358.45
		l1.53-1.53c-1.53-2.29-3.06-4.58-5.34-6.87l-0.76,0.75L819.72,358.45z M819.72,738.62c9.17-16.04,13.74-34.36,19.08-51.91
		c1.53-3.82-0.76-5.34-4.58-7.63l-5.34,17.56c0,0.76,0.76,2.29,0.76,3.06c3.05,2.28,1.52,4.58,0.76,6.1l-5.35,9.16
		c-4.58,8.4-6.11,17.56-7.64,26.72L819.72,738.62z M822.78,672.96c4.58-7.63,5.35-8.4,3.82-13.74L822.78,672.96z M825.83,418.75
		h-1.53l3.06,9.17c0.76-0.76,1.53-0.76,2.29-0.76L825.83,418.75z M837.28,341.65c3.82,6.11,1.53,14.51,9.17,19.85
		c-3.82-14.5-8.41-26.72-17.56-38.17L837.28,341.65z M854.84,296.62c-3.82-9.92-12.22-14.51-21.38-18.32L854.84,296.62z
		 M838.81,488.22l-2.29,22.14h0.76l2.29-22.9L838.81,488.22z M836.51,752.35c6.11-1.53,6.11-2.28,5.35-9.92
		C837.28,743.96,838.04,748.54,836.51,752.35z M839.57,319.52c1.53,8.4,13.74,23.66,20.61,26.72L839.57,319.52z M840.33,479.83
		h-0.76c0,0.76,0.76,1.53,0.76,2.29V479.83z M844.92,753.12c-3.06,3.06-6.88,5.35-3.82,9.92
		C842.63,759.99,845.68,758.47,844.92,753.12z M854.08,643.95c3.81-9.16,1.52-19.08,2.28-29.77c-12.21,18.33-17.56,40.46-14.5,61.84
		C847.21,664.56,850.27,653.88,854.08,643.95z M843.39,619.53c5.35-8.4,5.35-9.16,1.53-14.51L843.39,619.53z M856.36,569.14
		c-3.05,6.1-5.34,12.22-7.62,18.32c-2.29,4.58-2.29,5.35,1.53,11.45c3.05-9.92,5.33-19.08,7.62-29.01
		C857.13,569.91,857.13,569.14,856.36,569.14z M852.55,545.48c0.76,1.52,0,4.58,0,6.1c-0.76,5.34-2.28,9.92-3.81,14.5
		c3.05-3.05,5.34-6.1,7.62-9.92c0.76-0.76,0.76-3.05,0.76-4.58c-1.53-5.35-3.05-11.45-3.81-16.79
		C851.02,538.61,849.5,541.66,852.55,545.48z M850.27,406.55c1.52,7.63,2.28,14.5,3.05,22.13
		C856.36,421.81,854.84,414.18,850.27,406.55z M854.84,354.63c0,0-0.76,0.76-1.53,0.76l3.81,5.34c0.76,0,0.76-0.76,1.53-0.76
		L854.84,354.63z M856.36,494.33c-1.52,3.81-3.05,8.4,0.76,12.21C856.36,502.73,856.36,498.15,856.36,494.33z M857.13,376.77
		c0,0,0.76,0,0.76-0.76c0-1.53-0.76-3.06-1.53-4.58h-1.52L857.13,376.77z M857.13,321.04c-0.76,0-0.76,0.76-0.76,0.76
		c0,0.76,0.76,2.29,1.53,3.06c2.29,3.82,3.82,8.4,9.93,9.16c3.05,0.76,6.87,4.58,8.39,7.63c1.53,6.11,3.82,11.45,9.17,15.27
		c2.29,2.29,2.29,4.58,0,6.87l-4.58,3.82c4.58-1.53,6.88-1.53,9.92-2.29c-0.76-4.58-1.52-8.4-3.05-11.45l-9.17-20.61
		c-2.29-6.87-4.58-12.97-11.44-16.79c-4.58-2.29-7.64-6.1-11.46-9.16c0,3.06,13.75,15.26,16.04,17.56c1.53,1.53,2.29,3.06,0.76,5.35
		c-1.53,2.28-3.81,0.75-5.34-0.76L857.13,321.04z M857.13,397.39c0-1.53-0.76-2.29-1.53-3.82
		C855.6,395.09,856.36,396.62,857.13,397.39z M859.42,476.78c0.76-22.14,0.76-26.73-3.82-32.06
		C857.13,456.93,858.65,466.85,859.42,476.78z M857.13,512.65h0.76c-0.76-2.29-0.76-3.82-0.76-5.35V512.65z M869.35,500.44
		c0,4.58-2.29,8.4,0.76,12.22L869.35,500.44z M868.59,566.85c6.86-7.63,4.58-15.26,0-23.66V566.85z M870.87,520.29v-2.29
		c0,0.76-0.75,1.53-0.75,2.29H870.87z M883.09,634.79c-5.35,11.45-8.4,22.9-12.22,34.36c3.06,2.29,4.58,1.53,5.34-1.53
		c3.06-9.16,6.11-18.32,8.41-27.48c0.76-1.53,0-3.06,0-4.58C884.62,635.56,883.85,634.79,883.09,634.79z M874.69,595.09h1.52
		l1.53-6.1h-1.53L874.69,595.09z M876.21,412.65l2.29,25.2c0.76-8.41,2.29-17.57-0.76-25.2H876.21z M885.38,585.93
		c3.82-6.1,6.87-12.21,6.1-19.08c-0.76-6.87-3.05-14.5-5.34-22.9C880.79,559.22,883.09,572.2,885.38,585.93z M889.2,460.74h0.75
		c0-2.29,0-5.34-0.75-8.4V460.74z M890.72,478.3v-7.63V478.3z M893.01,495.1h-0.76v29.77h0.76V495.1z M899.11,529.45
		c4.58-0.76,5.35-3.06,4.58-5.34c0-5.35-0.76-10.69-0.76-16.04c-0.76-5.34-0.76-10.69-3.82-16.79V529.45z M905.23,589.76l-4.58,22.9
		c0,1.52,0.76,3.05,0.76,4.58c2.29-9.16,3.82-18.32,5.35-27.48H905.23z M906.76,468.37c-0.76,0-0.76,0-1.53-0.76l2.29,25.96
		c0,0,0.76,0,1.53-0.76L906.76,468.37z M909.05,508.83v4.58V508.83z"/>
	<path class="st2" d="M1155.99,527.15l-2.29,53.44c-1.53,45.8-12.22,88.55-32.06,129.78c0,0.76-0.76,1.52-0.76,2.28
		c-6.87,22.14-20.61,41.99-29.01,64.13c-5.35,13.74-14.5,25.19-25.2,35.88c-16.79,19.08-44.27,32.83-67.17,42.75
		c-10.7,4.58-22.14,5.34-34.36,4.58l-24.42-3.05c-2.29-0.76-5.35-0.76-7.64,0c-4.58,2.28-9.16,3.05-13.74,3.05
		c-31.3,0-67.19-34.35-78.63-61.83c-5.35-13.74-12.22-25.96-19.08-38.93c-29.78-58.78-39.7-123.67-42.75-188.56
		c-0.76-22.14,0-44.28,3.82-65.65c3.06-22.14,5.34-44.28,9.15-65.66c11.46-58.02,44.28-121.37,87.03-161.83
		c1.53-1.53,3.06-2.29,3.82-3.82c7.62-11.45,36.64-32.82,50.38-38.17c13.74-6.87,29.02-8.4,44.28-6.1l20.61,3.06
		c40.46,6.87,48.08,12.21,79.39,33.58c3.05,1.53,6.1,3.82,8.39,6.1c7.64,4.58,12.23,10.69,17.57,16.8c0.76,1.53,0.76,3.05,1.52,3.81
		c22.9,22.9,37.41,85.51,41.22,116.03c1.53,8.41,2.29,16.8,3.06,25.2l3.06,31.3c1.53,19.08,2.29,38.17,3.06,57.25
		c0.76,1.53,0,3.06,0,4.58H1155.99z M790.33,551.59c0-0.76,0.76-2.29,0-3.82c-2.29-6.1,0-12.21,0.76-18.32
		c0-0.76,0.75-2.29,0.75-3.06c-0.75-0.75-1.52-2.28-1.52-3.05c-3.81,22.14-2.29,43.51-2.29,65.65L790.33,551.59z M796.43,663.04
		h1.53c0-1.52-0.76-3.81-0.76-5.34c0-7.63-0.76-15.26-0.76-22.9c0-4.58,0.76-4.58-4.58-6.87L796.43,663.04z M794.14,512.65
		c3.06-19.08,6.11-38.93,9.93-58.02c-6.11,18.32-11.46,37.4-11.46,58.02H794.14z M795.67,566.85c-0.76,19.08-4.58,38.17,2.29,57.25
		L795.67,566.85z M797.2,554.64v-3.82V554.64z M804.07,651.59c-0.76,0.76-1.53,0.76-1.53,0.76c4.58,29.77,11.44,59.54,22.14,88.55
		c3.81-1.53,4.58-3.06,3.05-5.35L804.07,651.59z M812.46,514.95c-6.09,11.44-3.05,24.42-3.05,36.64
		C810.18,539.37,813.22,527.15,812.46,514.95z M811.69,401.2c8.41-12.21,9.93-15.26,6.88-20.61L811.69,401.2z M823.16,408.83
		c0.76,0,1.53,0.76,2.29,0.76l-5.35,12.22l4.58-2.29l8.39-21.37c-4.58,2.28-8.39,4.58-12.97,6.1c-0.76,3.82-2.29,6.87-3.06,11.45
		L823.16,408.83z M824.68,543.96c0.76-9.92,1.52-18.32,3.05-27.49C823.92,521.81,823.16,528.68,824.68,543.96z M846.82,745.49
		c-6.1-22.9-12.98-45.8-19.85-67.94c0-0.76-0.76-0.76-1.52-1.53C824.68,689,839.95,737.85,846.82,745.49z M826.97,392.04
		c6.1-1.53,7.63-5.34,5.34-12.22L826.97,392.04z M832.31,557.69v-5.34V557.69z M833.07,763.04c3.06,3.82,3.82,7.63,7.64,9.16
		C838.42,769.15,838.42,764.57,833.07,763.04z M834.6,538.61c-0.76,0-0.76,0-0.76-0.76v6.11c0,0,0,0,0.76,0V538.61z M840.71,641.67
		v-30.54c-3.06,6.1-4.58,23.66-3.06,28.24L840.71,641.67z M837.66,508.83h1.53c0-1.53,0-3.81-0.76-5.34h-0.76V508.83z
		 M855.21,777.55l-6.87-9.16c-2.29-3.06-4.58-6.11-6.1-9.16c-0.76,0-1.53,0.76-2.29,0.76c4.58,6.87,8.4,12.97,13.74,18.32
		C854.45,778.31,854.45,777.55,855.21,777.55z M843,407.31l3.05-6.11c0,0-0.75,0-1.52-0.76c-0.76,2.29-1.53,3.82-3.06,5.35
		C842.24,406.55,843,406.55,843,407.31z M846.82,459.21c-0.76,0-0.76-0.76-1.52-0.76l-3.06,9.16c0.76,0,0.76,0.76,1.53,0.76
		L846.82,459.21z M846.05,563.8c3.06-12.22,5.34-25.2,5.34-38.17c0-9.92-0.76-19.85,6.11-28.25c0.76-0.75,0.76-2.28,0.76-3.05
		l1.53-16.8c-6.11,8.41-8.41,12.22-9.92,19.09l-2.29,17.56c-4.58,21.38-3.05,43.51-3.81,65.65L846.05,563.8z M858.27,792.81
		c-4.58-4.58-6.88-10.69-14.5-12.22C848.34,787.47,850.63,789.77,858.27,792.81z M844.53,674.49c1.52,5.35,3.81,9.92,5.34,14.51
		c0.75,0,1.52-0.76,1.52-0.76c-1.52-4.58-3.81-9.16-5.34-14.51C845.3,674.49,844.53,674.49,844.53,674.49z M861.32,363.03
		c-6.11,8.4-9.93,18.32-12.98,28.24C854.45,386.7,860.56,372.19,861.32,363.03z M859.8,400.43c-4.58,11.45-7.64,23.67-9.92,37.41
		c11.45-15.27,12.98-32.83,19.08-48.1C864.38,392.04,861.32,396.62,859.8,400.43z M851.39,729.46c-0.76,0-0.76,0-1.52,0.76
		l3.05,9.92h1.53L851.39,729.46z M849.87,805.03c0.75,1.53,1.52,3.82,3.05,5.34c16.8,20.61,30.55,36.65,58.78,43.52
		c4.58,1.53,9.93,1.53,14.51,0c-6.87-3.06-12.98-5.35-20.61-7.63c-14.51-3.82-26.72-12.22-37.4-22.14
		c-6.87-5.34-11.45-12.98-17.57-19.08H849.87z M877.35,785.95c-5.35-1.53-6.88-5.35-9.16-9.16c-2.29-4.58-5.34-6.87-10.69-9.92
		c6.88,14.5,14.5,22.9,27.48,26.72C882.7,790.52,880.41,786.71,877.35,785.95z M859.03,347c6.87-6.87,8.4-9.92,6.11-16.79
		L859.03,347z M862.09,458.45h-1.53c0,1.53-0.76,3.06-0.76,4.58h0.76L862.09,458.45z M861.32,662.28c2.29,6.1,4.58,10.68,6.87,15.26
		C867.43,666.09,867.43,665.33,861.32,662.28z M863.62,305.01c2.28-1.53,3.81-3.81,5.34-5.34c-3.06,0.76-4.58,2.28-6.1,4.58
		L863.62,305.01z M867.43,549.29l-2.28,19.08h2.28c0-6.1,0.76-12.98,0.76-19.08H867.43z M865.9,505.02v-3.06V505.02z M868.19,617.24
		h-1.53c1.53,17.56,4.58,35.12,9.16,51.91L868.19,617.24z M867.43,384.41c6.87-4.58,12.98-8.4,15.27-16.03
		C872,375.25,868.96,378.3,867.43,384.41z M872.77,772.2c0,0,0.76-0.76,1.53-0.76c0.76-4.58-1.53-7.63-6.1-9.92L872.77,772.2z
		 M876.59,611.13c0.76-21.38,2.29-41.99,3.82-63.37l9.15-70.99c-0.75,0.75-1.52,1.52-1.52,2.28c-5.34,31.3-11.45,62.6-16.04,93.9
		c-2.28,12.21-3.05,25.19,1.53,37.4c0.76,0.76,0,1.53,0,3.06c-1.53,4.58,0,12.21,3.06,16.03
		C876.59,623.35,875.82,617.24,876.59,611.13z M882.7,311.12c-3.82,3.06-7.64,6.11-11.46,9.92
		C876.59,322.57,877.35,321.8,882.7,311.12z M902.55,835.57c-9.17-6.87-16.8-16.04-29.02-18.32
		C881.94,824.88,891.09,831.75,902.55,835.57z M877.35,636.32c-0.76-2.29-0.76-3.81-0.76-6.1c0,2.29,0,3.81-0.76,6.1H877.35z
		 M878.88,647.77c0-1.53,0-3.06-0.76-4.58h-0.76c0,1.52,0,3.05,0.76,4.58H878.88z M880.41,394.33c0.76,0,1.53,0.76,1.53,0.76
		l1.53-4.58c0-0.76-0.76-0.76-0.76-0.76L880.41,394.33z M884.23,777.55c0,0,0.75-0.76,0.75-1.53l-3.81-2.29
		c-0.76,0.76-0.76,0.76-0.76,1.53L884.23,777.55z M881.94,666.09c1.53,16.04,3.05,30.54,15.26,42.75L881.94,666.09z M883.47,355.4
		c0.76,0.76,0.76,1.53,1.52,1.53c2.29,0,3.06-1.53,3.82-3.82l-0.76-0.76L883.47,355.4z M888.8,789.77c1.52-5.35-0.76-6.11-5.34-5.35
		L888.8,789.77z M884.98,627.16c3.82,48.86,22.14,122.15,82.45,122.15c7.63,0,19.84-0.76,25.19-5.35
		c13.74-13.74,25.96-28.24,33.59-46.56c26.72-69.47,31.3-134.35,31.3-207.64c0.76-20.61-2.29-41.22-9.17-61.07
		c-3.81-11.44-9.15-22.13-12.21-33.58c-6.88-20.61-22.9-45.04-44.28-51.91c-6.87-1.53-13.74-1.53-19.85-3.05
		c-7.63-1.53-12.97,0-17.56,4.58c-7.63,7.63-16.03,16.03-21.38,25.95c-38.93,65.66-45.04,165.65-48.09,239.71
		C884.98,616.47,884.23,621.82,884.98,627.16z M891.09,369.9l-4.58,11.45l0.76,0.76c2.28-3.81,3.81-7.63,6.1-10.69L891.09,369.9z
		 M893.38,276c-3.06,0.76-5.34,1.53-5.34,4.58L893.38,276z M895.67,334.78c0-0.76-0.76-0.76-0.76-1.53
		c-1.53,2.29-2.29,4.58-3.82,6.11c0.76,0,0.76,0.76,1.53,0.76L895.67,334.78z M891.09,466.09c2.29-6.88,3.82-14.51,5.35-21.38
		c2.29-7.63,3.82-14.51,5.35-22.14C895.67,436.32,893.38,451.58,891.09,466.09z M900.26,285.16l-7.64,9.92l0.76,0.76l16.79-6.87
		L900.26,285.16z M946.06,818.01c-0.76,0-1.53-0.76-2.29-0.76c-12.22-2.29-22.13-7.64-32.06-14.51c-4.58-3.06-9.91-6.87-16.79-5.34
		c2.29,2.28,3.06,4.58,5.35,5.34c15.26,6.87,29.76,13.74,46.56,17.56C946.06,818.77,946.06,818.77,946.06,818.01z M896.44,358.45
		c3.06,0,3.82-2.29,5.35-3.82l-1.53-1.53L896.44,358.45z M896.44,383.64c6.11-8.4,10.69-16.03,10.69-25.95
		C902.55,363.79,897.2,377.54,896.44,383.64z M897.96,732.5c-0.76,6.88-0.76,6.88,6.87,9.16
		C902.55,737.85,900.26,735.56,897.96,732.5z M898.73,774.49c0.76,6.1,6.1,5.35,9.16,6.1C905.6,778.31,903.31,775.26,898.73,774.49z
		 M910.17,317.99l9.17-12.98c2.29-2.29,2.29-4.58,0-7.63c-7.64,3.06-16.79,18.32-17.56,33.58
		C904.08,326.39,907.12,321.8,910.17,317.99z M902.55,267.61c0,0,0,0,0,0.76l4.58-3.06c0-0.76,0-0.76-0.76-0.76L902.55,267.61z
		 M902.55,721.82c3.05,8.41,7.62,16.04,15.26,21.38C913.99,734.8,908.65,727.93,902.55,721.82z M912.46,330.21
		c-5.34,3.05-6.87,8.4-8.39,13.74C910.17,340.89,910.94,335.55,912.46,330.21z M910.17,276c1.53-0.76,3.06-0.76,3.82-1.53
		c1.53-3.05,5.35-3.81,8.41-3.81c4.58-0.76,5.34-3.82,6.86-8.41c-7.62,3.82-15.26,5.35-19.85,11.45
		C910.17,274.48,910.17,275.24,910.17,276z M910.94,396.62l10.7-23.67c-0.76-0.76-1.53-0.76-1.53-0.76
		c-7.64,6.11-6.88,16.04-10.7,23.67C909.41,396.62,910.17,396.62,910.94,396.62z M911.7,262.26c9.17-1.52,17.56-10.68,27.49-6.1
		c2.29-1.53,3.82-3.06,5.34-5.34C936.13,247.76,920.87,253.1,911.7,262.26z M911.7,815.72c8.41,9.16,34.36,17.56,50.39,16.03
		L911.7,815.72z M936.13,808.09c-4.58-6.88-10.69-11.45-19.08-10.69C920.11,802.74,929.26,807.32,936.13,808.09z M927.74,839.38
		c-1.53-3.05-3.82-6.1-9.92-5.34L927.74,839.38z M923.16,319.52c-2.29,2.28-2.29,3.81-2.29,8.4c9.15-7.63,18.32-15.27,29.76-19.85
		c3.82-1.53,4.58-5.35,6.88-9.92C943.76,304.25,933.84,311.88,923.16,319.52z M933.08,284.4c0-0.76,0-0.76-0.76-1.53
		c-3.06-0.76-6.1-2.28-9.15,3.06L933.08,284.4z M923.92,744.72c1.53,8.4,3.82,9.16,12.98,6.87L923.92,744.72z M927.74,308.83
		c5.34-3.06,9.92-6.88,16.79-11.45c-7.63-0.76-12.98-4.58-19.08-2.29C925.44,299.67,923.92,305.01,927.74,308.83z M962.09,789.77
		v-2.29c-10.7-1.53-20.61-3.82-31.31-6.11c-1.53,0-3.05,0.76-5.34,1.53c5.34,4.58,9.92,6.88,16.04,6.88H962.09z M930.02,767.63
		c8.41,7.63,17.57,10.69,24.43,7.63L930.02,767.63z M934.6,354.63h0.76c6.11-6.1,11.45-12.98,17.56-19.85
		c-5.34,0-9.91,0.76-12.21,5.35L934.6,354.63z M977.36,247l-9.92-5.34c-1.53-0.76-3.06-2.29-4.58-1.53
		c-6.88,0.76-14.52,2.29-22.9,4.58C952.16,250.82,964.38,247,977.36,247z M987.27,316.46c-3.05-3.06-4.58-7.63-9.91-6.1
		c-9.92,3.81-19.08,8.4-28.25,15.26L987.27,316.46z M949.87,763.81v0.76c3.06,0,5.35,0,8.41-0.76H949.87z M951.4,275.24
		c0.76,0,0.76,0.76,1.53,0.76h3.06c0.76,0,0.76-0.76,1.53-0.76H951.4z M962.09,820.29c-6.11-3.05-6.11-3.05-9.17,1.53
		C959.8,824.88,959.8,824.88,962.09,820.29z M984.23,255.39c-3.81-0.76-6.87-1.53-10.69-1.53c-3.06-0.76-6.1-0.76-9.92-0.76h-9.16
		v2.29H984.23z M959.04,843.96v-0.76h-4.58c0,0,0,0,0,0.76H959.04z M955.98,283.64c0,0.76,0,1.53-0.76,1.53
		c3.06,0.76,6.11,1.53,8.4,1.53c0.76-0.76,0.76-1.53,0.76-1.53L955.98,283.64z M977.36,271.43c-6.11-3.82-12.22-4.58-19.85-1.53
		L977.36,271.43z M958.27,763.81c3.06,2.29,3.06,2.29,8.4,1.53L958.27,763.81z M963.61,298.91l-3.81,6.1l10.68-2.29L963.61,298.91z
		 M973.54,276.77h-4.58H973.54z M992.62,289.75c-4.58,0-9.92-2.29-16.03-0.76c6.1,3.05,13.74,5.34,20.61,5.34
		c4.58,0,9.16-1.53,12.21-3.05L992.62,289.75z M1129.27,649.3l-1.53,9.92c-0.76,1.53-2.29,3.06-3.06,5.34
		c-1.52,6.11-3.81,12.98-6.09,19.08l-16.04,45.81c-8.4,25.19-21.38,47.33-40.46,66.41c-1.52,1.53-3.05,3.06-3.05,4.58
		c0.76,3.82-1.53,6.11-3.82,7.64c-2.29,1.52-4.58,3.05-6.88,5.34c-7.62,7.63-16.03,12.98-25.95,17.56
		c-12.22,5.35-25.95,9.16-38.17,16.04l-6.87,3.81v1.53c6.87-1.53,13.74-2.29,19.85-4.58c31.29-12.22,73.28-37.41,87.02-70.23
		c9.92-22.9,22.9-44.28,31.3-67.18c3.81-12.22,9.91-23.67,13.74-35.89c3.82-10.69,6.11-22.13,9.17-32.82v-4.58
		c-3.06,6.11-6.11,11.45-8.41,17.56c0-1.53,0.76-2.28,0.76-3.05c3.82-11.45,6.88-22.14,9.92-33.59c-3.05,0-3.05,3.06-3.05,4.58
		C1134.62,630.98,1132.32,640.14,1129.27,649.3z M978.12,779.84c3.06,1.52,6.1,2.28,9.15,2.28c4.58,0,9.17-1.53,12.23-4.58
		L978.12,779.84z M978.89,324.1c0,0,0,0.76,0.76,1.53l12.21-2.29v-1.53L978.89,324.1z M993.39,796.63
		c-4.58-3.06-5.35-2.29-13.74,2.29L993.39,796.63z M981.18,771.44c5.34,1.53,9.15,0.76,16.79-3.81
		C991.86,766.1,986.52,770.67,981.18,771.44z M1022.39,328.68l-10.69-6.11c-6.1,1.53-11.44,3.82-16.03,5.35
		C1003.31,330.21,1016.29,330.96,1022.39,328.68z M996.44,244.7v0.76c3.06,0,6.1-0.76,9.16-0.76H996.44z M1025.45,720.3h-0.76
		l-28.24,33.58c3.82,0.76,6.87-0.76,9.16-3.81l15.27-21.38L1025.45,720.3z M997.97,822.59l3.82-2.29c-2.29,0-3.82,0-4.58,0.76
		C997.21,821.82,997.21,821.82,997.97,822.59z M997.97,801.97c0.76,0,0.76,0.76,0.76,1.53c3.81,0.76,6.87,0,9.15-1.53v-2.29
		L997.97,801.97z M1020.87,823.35c-6.88,2.29-14.51,0.76-19.85,6.1C1008.65,830.22,1015.53,828.7,1020.87,823.35z M1005.6,244.7
		c0,2.29,0.76,5.35,3.81,5.35c7.64,2.29,15.27,3.81,23.67,5.34v-1.53L1005.6,244.7z M1010.94,814.95c9.17,0.76,9.17,0.76,9.93-3.82
		C1014,811.9,1014,811.9,1010.94,814.95z M1011.71,275.24c6.88,3.82,7.64,3.82,10.69,0H1011.71z M1036.14,370.66l-9.17-25.19
		l-3.05-3.06l-12.22-2.28L1036.14,370.66z M1012.47,300.44c0,0.76,0.76,1.52,0.76,2.28l3.82-2.28l-1.53-2.29L1012.47,300.44z
		 M1040.72,724.11l1.52-3.81c-2.28,0-3.81-0.76-5.34-0.76c-3.82,5.34-7.64,9.92-10.69,15.26c-1.53,3.82-3.82,7.63-4.58,11.45
		c0,3.82-0.75,6.87-3.05,10.69C1023.92,754.65,1035.37,737.85,1040.72,724.11z M1031.55,279.82c0-3.06,1.53-7.64-4.58-6.11
		L1031.55,279.82z M1040.72,305.78l-6.88-15.26c-0.76-1.53-3.06-1.53-5.35-2.29c2.29,10.69,5.35,19.85,13.74,27.48
		C1041.48,311.12,1041.48,308.07,1040.72,305.78z M1039.96,758.47c-4.58,4.58-8.41,12.21-9.93,20.61
		C1039.96,772.2,1040.72,770.67,1039.96,758.47z M1037.67,694.34c-0.76-0.76-0.76-0.76-1.53-0.76l-1.53,6.11h0.76L1037.67,694.34z
		 M1060.57,268.37c-10.7-8.4-13.75-9.16-18.33-7.63C1049.11,263.02,1051.4,272.18,1060.57,268.37z M1059.04,598.92
		c0,0,0.76,0,1.53,0.76c2.28-6.1,4.58-12.22,5.33-19.85c0-19.08,1.53-38.17,2.29-58.02c0-9.92,0-19.85-0.76-29.01
		c0-9.16-0.76-18.32-0.76-26.72c0-26.73,0-26.73-10.68-51.15l-10.69-23.67c-0.76,0-0.76,0-1.53,0.76l8.4,22.9
		c8.41,20.61,13.74,42.74,12.98,65.65c0,23.67-0.76,47.33-1.53,71c0,4.58-0.76,9.16-1.53,13.74L1059.04,598.92z M1047.58,327.92
		c0-0.76,0.76-0.76,0.76-0.76l-2.29-4.58c0,0-0.75,0-0.75,0.76L1047.58,327.92z M1046.05,779.84c9.17-3.06,10.7-9.17,9.93-16.8
		L1046.05,779.84z M1050.64,675.25c1.53-3.05,3.06-6.1,3.82-9.16l6.87-24.42c3.06-6.88,3.06-14.51,1.53-21.38
		c-6.1,17.56-10.69,35.88-13.74,54.2C1049.11,674.49,1049.87,675.25,1050.64,675.25z M1072.01,774.49
		c-20.61,16.79-21.38,16.79-21.38,23.67C1059.81,791.29,1066.67,783.65,1072.01,774.49z M1075.84,402.73
		c2.29-6.1,1.53-10.69-3.06-16.03c-6.11-6.88-10.69-14.51-15.26-22.14c-2.29-2.29-3.82-4.58-5.35-6.87
		C1054.46,366.85,1069.72,397.39,1075.84,402.73z M1059.04,358.45l1.53-1.53c-1.53-2.29-3.06-4.58-5.35-6.87l-0.76,0.75
		L1059.04,358.45z M1059.04,738.62c9.15-16.04,13.74-34.36,19.08-51.91c1.53-3.82-0.76-5.34-4.58-7.63l-5.35,17.56
		c0,0.76,0.76,2.29,0.76,3.06c3.06,2.28,1.53,4.58,0.76,6.1l-5.34,9.16c-4.58,8.4-6.1,17.56-7.63,26.72L1059.04,738.62z
		 M1062.09,672.96c4.58-7.63,5.34-8.4,3.81-13.74L1062.09,672.96z M1065.15,418.75h-1.53l3.05,9.17c0.76-0.76,1.53-0.76,2.29-0.76
		L1065.15,418.75z M1076.6,341.65c3.81,6.11,1.53,14.51,9.15,19.85c-3.81-14.5-8.39-26.72-17.56-38.17L1076.6,341.65z
		 M1094.16,296.62c-3.82-9.92-12.22-14.51-21.38-18.32L1094.16,296.62z M1078.13,488.22l-2.29,22.14h0.76l2.29-22.9L1078.13,488.22z
		 M1075.84,752.35c6.1-1.53,6.1-2.28,5.34-9.92C1076.6,743.96,1077.36,748.54,1075.84,752.35z M1078.89,319.52
		c1.52,8.4,13.74,23.66,20.61,26.72L1078.89,319.52z M1079.66,479.83h-0.76c0,0.76,0.76,1.53,0.76,2.29V479.83z M1084.23,753.12
		c-3.06,3.06-6.87,5.35-3.82,9.92C1081.94,759.99,1084.99,758.47,1084.23,753.12z M1093.39,643.95c3.82-9.16,1.53-19.08,2.29-29.77
		c-12.22,18.33-17.56,40.46-14.51,61.84C1086.51,664.56,1089.57,653.88,1093.39,643.95z M1082.7,619.53
		c5.34-8.4,5.34-9.16,1.53-14.51L1082.7,619.53z M1095.68,569.14c-3.06,6.1-5.35,12.22-7.64,18.32c-2.29,4.58-2.29,5.35,1.53,11.45
		c3.06-9.92,5.35-19.08,7.64-29.01C1096.45,569.91,1096.45,569.14,1095.68,569.14z M1091.86,545.48c0.76,1.52,0,4.58,0,6.1
		c-0.76,5.34-2.29,9.92-3.82,14.5c3.06-3.05,5.35-6.1,7.64-9.92c0.76-0.76,0.76-3.05,0.76-4.58c-1.53-5.35-3.06-11.45-3.82-16.79
		C1090.33,538.61,1088.81,541.66,1091.86,545.48z M1089.57,406.55c1.53,7.63,2.29,14.5,3.06,22.13
		C1095.68,421.81,1094.16,414.18,1089.57,406.55z M1094.16,354.63c0,0-0.76,0.76-1.53,0.76l3.82,5.34c0.76,0,0.76-0.76,1.53-0.76
		L1094.16,354.63z M1095.68,494.33c-1.53,3.81-3.06,8.4,0.76,12.21C1095.68,502.73,1095.68,498.15,1095.68,494.33z M1096.45,376.77
		c0,0,0.76,0,0.76-0.76c0-1.53-0.76-3.06-1.53-4.58h-1.53L1096.45,376.77z M1096.45,321.04c-0.76,0-0.76,0.76-0.76,0.76
		c0,0.76,0.76,2.29,1.53,3.06c2.29,3.82,3.81,8.4,9.91,9.16c3.06,0.76,6.88,4.58,8.41,7.63c1.53,6.11,3.81,11.45,9.15,15.27
		c2.29,2.29,2.29,4.58,0,6.87l-4.58,3.82c4.58-1.53,6.87-1.53,9.92-2.29c-0.76-4.58-1.53-8.4-3.06-11.45l-9.15-20.61
		c-2.29-6.87-4.58-12.97-11.46-16.79c-4.58-2.29-7.62-6.1-11.44-9.16c0,3.06,13.74,15.26,16.03,17.56c1.53,1.53,2.29,3.06,0.76,5.35
		c-1.53,2.28-3.82,0.75-5.35-0.76L1096.45,321.04z M1096.45,397.39c0-1.53-0.76-2.29-1.53-3.82
		C1094.92,395.09,1095.68,396.62,1096.45,397.39z M1098.74,476.78c0.76-22.14,0.76-26.73-3.82-32.06
		C1096.45,456.93,1097.98,466.85,1098.74,476.78z M1096.45,512.65h0.76c-0.76-2.29-0.76-3.82-0.76-5.35V512.65z M1108.65,500.44
		c0,4.58-2.29,8.4,0.76,12.22L1108.65,500.44z M1107.89,566.85c6.88-7.63,4.58-15.26,0-23.66V566.85z M1110.18,520.29v-2.29
		c0,0.76-0.76,1.53-0.76,2.29H1110.18z M1122.4,634.79c-5.34,11.45-8.4,22.9-12.22,34.36c3.06,2.29,4.58,1.53,5.35-1.53
		c3.06-9.16,6.1-18.32,8.4-27.48c0.75-1.53,0-3.06,0-4.58C1123.93,635.56,1123.16,634.79,1122.4,634.79z M1114,595.09h1.53l1.53-6.1
		h-1.53L1114,595.09z M1115.53,412.65l2.29,25.2c0.76-8.41,2.28-17.57-0.76-25.2H1115.53z M1124.68,585.93
		c3.82-6.1,6.88-12.21,6.11-19.08c-0.76-6.87-3.06-14.5-5.35-22.9C1120.11,559.22,1122.4,572.2,1124.68,585.93z M1128.5,460.74h0.76
		c0-2.29,0-5.34-0.76-8.4V460.74z M1130.03,478.3v-7.63V478.3z M1132.32,495.1h-0.76v29.77h0.76V495.1z M1138.44,529.45
		c4.58-0.76,5.33-3.06,4.58-5.34c0-5.35-0.76-10.69-0.76-16.04c-0.76-5.34-0.76-10.69-3.81-16.79V529.45z M1144.53,589.76
		l-4.58,22.9c0,1.52,0.76,3.05,0.76,4.58c2.29-9.16,3.81-18.32,5.34-27.48H1144.53z M1146.06,468.37c-0.76,0-0.76,0-1.53-0.76
		l2.29,25.96c0,0,0.76,0,1.53-0.76L1146.06,468.37z M1148.35,508.83v4.58V508.83z"/>
	<path class="st3" d="M673.23,689.61c1.02-4.33,2.9-7.97,4.95-11.62c1.54-2.51,2.9-4.78,3.76-7.74c0.34-1.14,0.68-2.51,2.05-1.82
		c0.17,0.23,0.51-0.46,0.85-0.91c5.46-6.6,11.27-10.25,18.44-12.75c1.88-0.46,3.58-0.68,5.29-0.23c0.68,0.23,1.54,0,2.22-0.23
		c2.56-0.91,5.29-1.37,8.02-0.91c1.54,0.46,2.9,0.23,4.44,0.23c4.1-0.46,7.85,0.91,11.61,2.28c2.05,0.46,3.93,1.6,5.8,2.96
		c1.02,0.91,2.39,1.82,3.58,2.51c10.42,7.29,14.51,28.47,15.54,42.6c0.68,5.24,0.34,10.25-0.17,15.49
		c-1.02,7.74-2.9,14.81-5.12,21.87c-0.51,1.6-1.03,2.96-1.37,4.56c-2.22,8.43-6.49,16.86-12.81,20.5
		c-4.27,3.19-11.27,6.6-15.88,7.74c-0.34,0-0.85,0.23-1.19,0.23c-1.37,0.23-2.56,0.68-3.76,1.82c-1.71,1.6-3.93,1.37-5.81,1.37
		c-3.07-0.46-6.15-0.68-9.22-1.37c-1.88-0.46-3.93-1.37-5.8-2.28c-2.9-0.91-7-3.19-9.05-5.92c-1.19-1.82-2.56-2.96-3.76-4.78
		c-7.51-10.71-12.98-24.38-14.17-39.18c-0.34-4.33-0.85-8.66-0.68-12.76C670.84,703.73,671.69,696.67,673.23,689.61z M678.35,743.6
		c0-2.28-0.17-5.92-1.37-7.52c-0.34-0.46-0.51-1.14-0.51-1.82l-1.02-7.52l-0.51-8.66c-0.51,0-1.03-0.23-1.71-0.23
		C673.74,726.97,675.28,735.62,678.35,743.6z M674.25,715.12h0.51c0.85-1.82,0.85-3.65-0.17-4.33L674.25,715.12z M675.11,690.97
		c0,0,0.17,0.23,0.34,0.23c0.51-1.82,1.54-3.41,1.37-5.69L675.11,690.97z M682.11,745.42c-0.34-0.91-1.03-1.82-1.54-2.73
		c0.34,4.1,2.73,9.79,5.46,13.67L682.11,745.42z M682.45,675.71c1.02-1.37,2.05-2.51,2.9-4.1c0.85-1.37,2.39-2.05,2.56-4.1
		C685.86,670.02,683.82,672.52,682.45,675.71z M683.82,712.16c0-2.28,0.17-4.55,0.17-6.83
		C682.96,707.61,682.79,709.88,683.82,712.16z M683.13,703.73c1.37-0.68,2.22-2.51,3.07-6.38
		C683.99,700.54,683.3,702.14,683.13,703.73z M689.28,688.47c-1.19,1.82-2.39,3.19-3.07,5.01
		C687.91,692.11,688.94,690.52,689.28,688.47z M687.4,714.89l-0.34,12.76h0.51c0-4.33,0.85-8.43,0.17-12.76H687.4z M688.25,684.6
		l1.37-1.37c-0.34-0.46-0.34-0.68-0.68-1.37c-0.51,0.91-0.68,1.82-1.2,2.51C687.91,684.6,688.08,684.6,688.25,684.6z M688.43,710.34
		c-0.85,1.82-0.85,2.05,0,3.19V710.34z M688.43,740.63l0.68,1.37C689.11,741.32,688.94,740.86,688.43,740.63z M690.99,730.61
		c-0.68,4.55-0.68,5.24,1.19,6.15L690.99,730.61z M692.01,704.42c-0.17,0-0.34-0.23-0.51-0.23l-0.68,3.42
		c0.17,0,0.17,0.23,0.34,0.23L692.01,704.42z M691.5,741.55c0.51,1.14,1.2,2.28,2.05,3.65c0-2.28-1.02-3.19-1.88-3.87L691.5,741.55z
		 M695.08,731.3c-0.68-1.6-1.37-2.96-1.88-4.56c-0.17,0.23-0.34,0.23-0.34,0.23c0.17,1.6,0.51,3.19,0.85,4.78L695.08,731.3z
		 M696.28,764.1c0.51-0.91,1.03-1.37,1.54-2.05c-1.54-2.28-2.22-5.24-4.95-5.69C694.06,758.86,695.26,761.36,696.28,764.1z
		 M700.55,693.25c-1.02,0-1.88,0.91-2.39,2.05c-1.02,1.59-1.71,3.42-2.39,5.24c-0.51,1.6-0.85,3.65-1.37,5.47
		c-0.17,0.91-0.34,1.6-0.34,2.51h0.34c1.37-6.83,4.78-11.62,8.88-16.63C702.09,692.34,701.4,693.03,700.55,693.25z M694.74,735.17
		c-0.17,0-0.34,0.23-0.51,0.23c0.68,4.1,1.2,8.2,4.78,10.48L694.74,735.17z M701.91,665.01c-1.2,0.46-2.56,0.91-3.42,1.82
		c-1.37,1.37-2.56,3.42-3.76,5.24c4.1-2.28,4.61-2.73,7.51-6.61L701.91,665.01z M732.48,706.24c-2.22-3.65-4.44-7.29-6.49-11.16
		c-0.51-0.91-1.2-1.37-1.88-1.82c-3.07-1.37-6.32-1.82-9.39-1.82c-1.2,0-2.56-0.46-3.76-0.23c-0.85,0.23-1.37,0-1.88-0.91
		c-0.68,0.45-1.02,0.91-1.54,1.14c-7,3.19-11.61,14.81-12.12,24.15c-0.34,5.69,0.51,11.16,3.07,15.95
		c4.78,8.66,8.71,12.75,17.42,12.75c3.07,0,8.37-1.14,10.76-4.33c1.03-1.37,2.05-2.51,3.24-3.65c2.73-2.51,3.76-5.92,3.24-10.02
		c-0.51-5.47-1.19-10.93-1.88-16.4c-0.17-2.05-0.17-2.28,1.54-2.51C732.82,706.92,732.65,706.69,732.48,706.24z M700.55,752.02
		c-0.68-2.28-2.22-2.96-3.41-4.55C697.13,750.66,697.65,751.11,700.55,752.02z M716.77,771.16l-3.25,0.46
		c-4.44,0.46-8.71-0.91-12.98-1.82c-0.68-0.23-1.37-0.45-1.54,0.68c3.41,2.28,6.66,2.73,10.93,2.96c0.85,0.23,1.88,0.68,2.73,0.23
		c1.37-0.46,2.73-1.37,4.27-2.05C716.77,771.39,716.77,771.39,716.77,771.16z M704.99,674.12c2.22-0.68,4.27-0.91,5.29-4.1
		c-0.17,0-0.51-0.23-0.68,0c-2.22,0.45-4.44,1.14-6.66,1.82c-1.37,0.23-2.39,1.59-3.07,3.19c-0.17,0.23-0.17,0.68-0.17,1.14
		l0.85-0.68l2.73-3.19c0.85-0.91,1.54-0.46,1.71,0.91V674.12z M702.94,679.58c-1.71,0.68-2.39,2.51-3.24,4.33
		c1.19-1.37,2.22-2.73,3.41-3.87C703.11,679.81,702.94,679.81,702.94,679.58z M701.74,742c0.17,0,0.34-0.23,0.34-0.23l-1.71-2.73
		c-0.17,0-0.17,0.23-0.34,0.46L701.74,742z M703.45,763.42c-1.19,0-2.39,0.23-3.25,0.68c-0.17,1.82,0.85,2.05,1.71,2.51
		c2.05,0.68,4.1,0.91,6.15,0.46c0.34-0.68,0.51-1.37,1.02-2.28C707.38,763.87,705.33,763.42,703.45,763.42z M705.16,657.26
		c-0.51-1.14-1.19-0.46-1.88,0.23c0.68,0,1.19,0.23,1.71,0.23C704.99,657.72,704.99,657.49,705.16,657.26z M703.79,747.24
		c0.34,1.6,0.85,2.96,1.54,4.33c0.68,1.37,1.71,1.59,3.07,0.68L703.79,747.24z M712.67,685.74c-3.07-0.46-4.78,2.51-7,3.87
		c0,0.23,0.17,0.46,0.17,0.68L712.67,685.74z M710.28,668.2c1.71,0,2.39-0.91,2.73-3.42c-2.9,0-4.95,2.05-7.17,4.1L710.28,668.2z
		 M715.4,655.89c-3.07,0.23-6.15,0.68-9.05,1.14c0.17,0.91,0.51,1.82,1.02,2.96c2.22-2.73,5.12-3.19,8.02-3.65V655.89z
		 M709.08,747.47c1.03,0.46,1.88,2.28,3.25,0.68c-1.2-0.46-2.05-0.91-3.07-1.14C709.26,747.24,709.26,747.24,709.08,747.47z
		 M709.26,683.46c1.2,0.46,2.22,0,3.07-1.59C711.13,682.32,709.94,682.09,709.26,683.46z M710.28,759.54
		c0.85,0.68,1.88,0.91,2.73-0.23C711.99,759.31,711.13,759.31,710.28,759.54z M712.84,765.24c0.51,1.82,1.02,1.82,2.22,0.68
		L712.84,765.24z M720.52,684.6c-1.54-1.82-3.07-3.19-5.12-3.19c-0.51,0-1.19,0.23-1.88,0.46l-0.34,1.59L720.52,684.6z
		 M713.35,749.75v0.68l2.05-0.68v-0.46L713.35,749.75z M713.87,668.2l3.93,0.91c0.17-0.23,0.17-0.23,0.17-0.46l-3.07-3.19
		L713.87,668.2z M723.94,688.01c-3.25-1.14-6.49-2.05-9.9-2.05c1.2,1.6,1.2,1.6,2.56,1.82l6.32,1.37c0.68,0,1.2-0.23,1.71-0.46
		C724.45,688.47,724.28,688.01,723.94,688.01z M722.06,675.71c-1.02,0-2.05,0.23-3.07,0.23c-2.05-0.46-3.25,1.14-4.78,2.96
		c2.73,0,5.12,0.23,7.34,0.45L722.06,675.71z M724.96,748.38c0-0.23-0.17-0.23-0.17-0.46c-2.73,1.14-5.46,2.51-8.19,3.87
		c0.34,0.45,0.51,0.91,0.68,0.68l6.32-2.73L724.96,748.38z M722.4,758.86c-1.37,0-2.73,0.46-4.1,0.46
		c-0.68,0.23-1.19,0.46-1.71,1.37c2.9,0,5.63-0.23,8.02-1.82C723.94,758.86,723.09,758.63,722.4,758.86z M722.57,765.24l-4.78-0.46
		c0.34,0.91,0.34,1.6,0.51,2.28C720.52,766.83,721.55,766.38,722.57,765.24z M722.57,770.7c-0.68-1.37-0.68-1.37-1.19-1.37
		l-3.25,1.59v0.23L722.57,770.7z M720.01,667.29l0.34-0.68c-0.51-0.46-1.19-0.91-1.88-0.68L720.01,667.29z M723.09,762.73
		c-0.68,0.23-1.19,0.46-1.71,0.46c2.39,1.14,2.56,1.14,3.58-1.14L723.09,762.73z M723.09,666.15l3.76,3.42
		c1.03,1.37,2.22,1.14,3.59,0.91C728.72,668.42,725.13,666.37,723.09,666.15z M727.87,691.89c-0.85-2.05-1.88-2.73-3.25-3.19
		C725.31,690.29,726.33,691.2,727.87,691.89z M728.38,757.26c-1.71-0.46-2.9,0.23-3.76,1.59
		C725.99,758.86,727.01,758.17,728.38,757.26z M730.6,678.45c-1.71-0.91-3.59-1.37-5.46-2.05c2.39,2.05,4.61,4.79,7.68,5.47
		C732.31,680.27,731.62,678.9,730.6,678.45z M730.6,662.5c1.19,0.23,2.56,1.14,3.76,0.23c-2.56-1.59-5.12-1.82-8.03-1.37
		C727.7,661.82,729.06,662.27,730.6,662.5z M726.84,675.49c-0.17,0.23-0.17,0.46-0.17,0.46l1.54,0.68v-0.46L726.84,675.49z
		 M726.84,686.65c1.88,1.14,3.93,1.82,5.98,2.51c-1.88-0.91-3.76-2.05-5.64-3.19L726.84,686.65z M728.04,762.05
		c-0.17,0.46-0.51,0.68-1.03,1.37c2.39-0.91,2.56-0.91,2.22-2.51L728.04,762.05z M732.31,667.74c-1.54-0.68-2.9-1.37-4.44-1.82v0.23
		c1.19,1.14,2.56,2.05,3.93,2.96C731.96,668.65,731.96,668.2,732.31,667.74z M728.38,746.78l0.34,0.46
		c0.34-0.46,0.68-0.91,1.03-1.14c-0.17-0.23-0.17-0.46-0.34-0.46L728.38,746.78z M731.45,693.71c0.17-1.14,0-1.82-1.02-1.82
		L731.45,693.71z M738.45,758.63l-6.83,7.29l-1.02,1.37c4.27-1.82,7.17-5.24,10.41-8.66C739.82,757.49,739.14,757.72,738.45,758.63z
		 M736.92,732.43c-1.88,3.19-3.59,6.61-5.81,10.25c0.68-0.23,1.2-0.23,1.37-0.46c1.88-2.96,3.41-6.15,4.78-9.57
		C737.09,732.66,736.92,732.43,736.92,732.43z M733.33,709.43c0.34-0.91,0.17-1.59-0.51-2.05L733.33,709.43z M733.5,693.94
		c-0.17,0-0.34,0-0.34,0.23c0.34,1.82,0.34,3.87,2.05,5.24C734.53,697.58,734.01,695.76,733.5,693.94z M734.18,669.34
		c0.51,1.82,1.19,1.82,2.22,1.59L734.18,669.34z M736.75,669.11c-0.51-1.6-1.2-2.28-2.39-1.6L736.75,669.11z M735.89,679.81
		c-0.17-0.23-0.68-0.23-1.19-0.46c0,0.23,0,0.46-0.17,0.46c1.02,1.37,1.37,3.42,2.9,4.56C737.6,682.32,736.57,681.18,735.89,679.81z
		 M735.55,754.76c0.17,0.23,0.34,0.23,0.34,0.45c0,1.14,0.17,2.05,0.17,3.19c1.03-0.91,1.88-2.05,2.73-3.19
		c-0.34-0.68-0.85-1.14-1.37-1.82L735.55,754.76z M737.6,674.8c-0.51-1.59-0.51-1.59-1.71-1.37L737.6,674.8z M736.23,713.53
		c0.17,2.28-0.34,4.55,0.85,6.83C737.6,716.26,737.43,714.67,736.23,713.53z M737.43,742.69c0.51-0.68,1.03-1.37,1.37-2.28
		c-1.2-0.45-1.2-0.45-2.22,0.68L737.43,742.69z M737.94,724.01h0.34l0.51-6.15c0.17-0.46-0.17-0.68-0.17-1.14h-0.34L737.94,724.01z
		 M738.45,684.6c0,2.73,0.17,2.96,1.88,3.41L738.45,684.6z M741.18,678.22c0.34-0.68,0.51-0.91,0.85-1.14l-1.71-2.28
		c-0.17,0-0.17,0-0.34,0.23L741.18,678.22z M742.72,679.58c-0.68,2.28-0.34,3.19,1.71,4.56L742.72,679.58z M743.06,743.82
		c0.17,0.23,0.17,0.23,0.34,0.23c0.68-1.14,1.37-2.51,2.22-3.65c0.68-1.14,1.02-2.51,0.51-4.1L743.06,743.82z M749.89,744.28
		c0.85-2.28,1.54-4.78,2.22-7.29l2.05-7.52h-1.54c0.68,1.37,0.34,2.28-0.17,3.19c-1.54,3.42-2.9,7.06-3.59,10.71
		c-0.17,0.91-0.85,3.87-1.71,4.33c-1.37,0.91-1.71,2.96-2.22,4.55C746.99,750.2,748.87,747.47,749.89,744.28z M746.82,714.67
		c0.68-3.87,0.85-7.74,0.85-11.85c-0.17-2.96-0.68-5.47-2.56-7.74C745.79,701.91,746.31,708.29,746.82,714.67z M746.13,727.19
		c0.17,0,0.34,0.23,0.51,0.23l0.51-3.19h-0.34L746.13,727.19z M746.82,684.83c0.68,3.87,2.05,7.29,2.9,10.93
		c0.85-0.68,0.68-1.6,0.51-2.51c-0.34-1.6-0.68-3.19-1.2-4.56c-0.51-1.59-1.19-2.73-1.88-4.1
		C747.16,684.6,746.99,684.83,746.82,684.83z M750.23,675.49c0.17-1.6-0.85-2.73-1.71-3.87c0.34,1.37,0.85,2.73,1.37,4.1
		C750.06,675.71,750.23,675.71,750.23,675.49z M753.48,684.37c-0.68-2.28-1.37-4.56-2.22-6.83c-0.34,0-0.68,0.23-1.19,0.46
		c1.19,2.28,2.22,4.33,3.07,6.38H753.48z M754.16,702.14h-0.51l0.51,5.01h0.51L754.16,702.14z"/>
	<path class="st3" d="M920.39,689.61c1.02-4.33,2.9-7.97,4.95-11.62c1.54-2.51,2.9-4.78,3.76-7.74c0.34-1.14,0.68-2.51,2.05-1.82
		c0.17,0.23,0.51-0.46,0.85-0.91c5.46-6.6,11.27-10.25,18.44-12.75c1.88-0.46,3.58-0.68,5.29-0.23c0.68,0.23,1.54,0,2.22-0.23
		c2.56-0.91,5.29-1.37,8.02-0.91c1.54,0.46,2.9,0.23,4.44,0.23c4.1-0.46,7.85,0.91,11.61,2.28c2.05,0.46,3.93,1.6,5.8,2.96
		c1.02,0.91,2.39,1.82,3.58,2.51c10.42,7.29,14.51,28.47,15.54,42.6c0.68,5.24,0.34,10.25-0.17,15.49
		c-1.02,7.74-2.9,14.81-5.12,21.87c-0.51,1.6-1.03,2.96-1.37,4.56c-2.22,8.43-6.49,16.86-12.81,20.5
		c-4.27,3.19-11.27,6.6-15.88,7.74c-0.34,0-0.85,0.23-1.19,0.23c-1.37,0.23-2.56,0.68-3.76,1.82c-1.71,1.6-3.93,1.37-5.81,1.37
		c-3.07-0.46-6.15-0.68-9.22-1.37c-1.88-0.46-3.93-1.37-5.8-2.28c-2.9-0.91-7-3.19-9.05-5.92c-1.19-1.82-2.56-2.96-3.76-4.78
		c-7.51-10.71-12.98-24.38-14.17-39.18c-0.34-4.33-0.85-8.66-0.68-12.76C917.99,703.73,918.85,696.67,920.39,689.61z M925.51,743.6
		c0-2.28-0.17-5.92-1.37-7.52c-0.34-0.46-0.51-1.14-0.51-1.82l-1.02-7.52l-0.51-8.66c-0.51,0-1.03-0.23-1.71-0.23
		C920.9,726.97,922.43,735.62,925.51,743.6z M921.41,715.12h0.51c0.85-1.82,0.85-3.65-0.17-4.33L921.41,715.12z M922.26,690.97
		c0,0,0.17,0.23,0.34,0.23c0.51-1.82,1.54-3.41,1.37-5.69L922.26,690.97z M929.26,745.42c-0.34-0.91-1.03-1.82-1.54-2.73
		c0.34,4.1,2.73,9.79,5.46,13.67L929.26,745.42z M929.61,675.71c1.02-1.37,2.05-2.51,2.9-4.1c0.85-1.37,2.39-2.05,2.56-4.1
		C933.02,670.02,930.97,672.52,929.61,675.71z M930.97,712.16c0-2.28,0.17-4.55,0.17-6.83
		C930.12,707.61,929.95,709.88,930.97,712.16z M930.29,703.73c1.37-0.68,2.22-2.51,3.07-6.38
		C931.14,700.54,930.46,702.14,930.29,703.73z M936.43,688.47c-1.19,1.82-2.39,3.19-3.07,5.01
		C935.07,692.11,936.09,690.52,936.43,688.47z M934.56,714.89l-0.34,12.76h0.51c0-4.33,0.85-8.43,0.17-12.76H934.56z M935.41,684.6
		l1.37-1.37c-0.34-0.46-0.34-0.68-0.68-1.37c-0.51,0.91-0.68,1.82-1.2,2.51C935.07,684.6,935.24,684.6,935.41,684.6z M935.58,710.34
		c-0.85,1.82-0.85,2.05,0,3.19V710.34z M935.58,740.63l0.68,1.37C936.26,741.32,936.09,740.86,935.58,740.63z M938.14,730.61
		c-0.68,4.55-0.68,5.24,1.19,6.15L938.14,730.61z M939.17,704.42c-0.17,0-0.34-0.23-0.51-0.23l-0.68,3.42
		c0.17,0,0.17,0.23,0.34,0.23L939.17,704.42z M938.65,741.55c0.51,1.14,1.2,2.28,2.05,3.65c0-2.28-1.02-3.19-1.88-3.87
		L938.65,741.55z M942.24,731.3c-0.68-1.6-1.37-2.96-1.88-4.56c-0.17,0.23-0.34,0.23-0.34,0.23c0.17,1.6,0.51,3.19,0.85,4.78
		L942.24,731.3z M943.43,764.1c0.51-0.91,1.03-1.37,1.54-2.05c-1.54-2.28-2.22-5.24-4.95-5.69
		C941.21,758.86,942.41,761.36,943.43,764.1z M947.7,693.25c-1.02,0-1.88,0.91-2.39,2.05c-1.02,1.59-1.71,3.42-2.39,5.24
		c-0.51,1.6-0.85,3.65-1.37,5.47c-0.17,0.91-0.34,1.6-0.34,2.51h0.34c1.37-6.83,4.78-11.62,8.88-16.63
		C949.24,692.34,948.56,693.03,947.7,693.25z M941.9,735.17c-0.17,0-0.34,0.23-0.51,0.23c0.68,4.1,1.2,8.2,4.78,10.48L941.9,735.17z
		 M949.07,665.01c-1.2,0.46-2.56,0.91-3.42,1.82c-1.37,1.37-2.56,3.42-3.76,5.24c4.1-2.28,4.61-2.73,7.51-6.61L949.07,665.01z
		 M979.63,706.24c-2.22-3.65-4.44-7.29-6.49-11.16c-0.51-0.91-1.2-1.37-1.88-1.82c-3.07-1.37-6.32-1.82-9.39-1.82
		c-1.2,0-2.56-0.46-3.76-0.23c-0.85,0.23-1.37,0-1.88-0.91c-0.68,0.45-1.02,0.91-1.54,1.14c-7,3.19-11.61,14.81-12.12,24.15
		c-0.34,5.69,0.51,11.16,3.07,15.95c4.78,8.66,8.71,12.75,17.42,12.75c3.07,0,8.37-1.14,10.76-4.33c1.03-1.37,2.05-2.51,3.25-3.65
		c2.73-2.51,3.76-5.92,3.24-10.02c-0.51-5.47-1.19-10.93-1.88-16.4c-0.17-2.05-0.17-2.28,1.54-2.51
		C979.97,706.92,979.8,706.69,979.63,706.24z M947.7,752.02c-0.68-2.28-2.22-2.96-3.41-4.55
		C944.29,750.66,944.8,751.11,947.7,752.02z M963.92,771.16l-3.25,0.46c-4.44,0.46-8.71-0.91-12.98-1.82
		c-0.68-0.23-1.37-0.45-1.54,0.68c3.41,2.28,6.66,2.73,10.93,2.96c0.85,0.23,1.88,0.68,2.73,0.23c1.37-0.46,2.73-1.37,4.27-2.05
		C963.92,771.39,963.92,771.39,963.92,771.16z M952.14,674.12c2.22-0.68,4.27-0.91,5.29-4.1c-0.17,0-0.51-0.23-0.68,0
		c-2.22,0.45-4.44,1.14-6.66,1.82c-1.37,0.23-2.39,1.59-3.07,3.19c-0.17,0.23-0.17,0.68-0.17,1.14l0.85-0.68l2.73-3.19
		c0.85-0.91,1.54-0.46,1.71,0.91V674.12z M950.09,679.58c-1.71,0.68-2.39,2.51-3.24,4.33c1.19-1.37,2.22-2.73,3.41-3.87
		C950.26,679.81,950.09,679.81,950.09,679.58z M948.9,742c0.17,0,0.34-0.23,0.34-0.23l-1.71-2.73c-0.17,0-0.17,0.23-0.34,0.46
		L948.9,742z M950.61,763.42c-1.19,0-2.39,0.23-3.24,0.68c-0.17,1.82,0.85,2.05,1.71,2.51c2.05,0.68,4.1,0.91,6.15,0.46
		c0.34-0.68,0.51-1.37,1.02-2.28C954.53,763.87,952.48,763.42,950.61,763.42z M952.31,657.26c-0.51-1.14-1.19-0.46-1.88,0.23
		c0.68,0,1.19,0.23,1.71,0.23C952.14,657.72,952.14,657.49,952.31,657.26z M950.95,747.24c0.34,1.6,0.85,2.96,1.54,4.33
		c0.68,1.37,1.71,1.59,3.07,0.68L950.95,747.24z M959.83,685.74c-3.07-0.46-4.78,2.51-7,3.87c0,0.23,0.17,0.46,0.17,0.68
		L959.83,685.74z M957.44,668.2c1.71,0,2.39-0.91,2.73-3.42c-2.9,0-4.95,2.05-7.17,4.1L957.44,668.2z M962.56,655.89
		c-3.07,0.23-6.15,0.68-9.05,1.14c0.17,0.91,0.51,1.82,1.02,2.96c2.22-2.73,5.12-3.19,8.02-3.65V655.89z M956.24,747.47
		c1.03,0.46,1.88,2.28,3.25,0.68c-1.2-0.46-2.05-0.91-3.07-1.14C956.41,747.24,956.41,747.24,956.24,747.47z M956.41,683.46
		c1.2,0.46,2.22,0,3.07-1.59C958.29,682.32,957.09,682.09,956.41,683.46z M957.44,759.54c0.85,0.68,1.88,0.91,2.73-0.23
		C959.14,759.31,958.29,759.31,957.44,759.54z M960,765.24c0.51,1.82,1.02,1.82,2.22,0.68L960,765.24z M967.68,684.6
		c-1.54-1.82-3.07-3.19-5.12-3.19c-0.51,0-1.19,0.23-1.88,0.46l-0.34,1.59L967.68,684.6z M960.51,749.75v0.68l2.05-0.68v-0.46
		L960.51,749.75z M961.02,668.2l3.93,0.91c0.17-0.23,0.17-0.23,0.17-0.46l-3.07-3.19L961.02,668.2z M971.1,688.01
		c-3.25-1.14-6.49-2.05-9.9-2.05c1.2,1.6,1.2,1.6,2.56,1.82l6.32,1.37c0.68,0,1.2-0.23,1.71-0.46
		C971.61,688.47,971.43,688.01,971.1,688.01z M969.22,675.71c-1.02,0-2.05,0.23-3.07,0.23c-2.05-0.46-3.25,1.14-4.78,2.96
		c2.73,0,5.12,0.23,7.34,0.45L969.22,675.71z M972.12,748.38c0-0.23-0.17-0.23-0.17-0.46c-2.73,1.14-5.46,2.51-8.19,3.87
		c0.34,0.45,0.51,0.91,0.68,0.68l6.32-2.73L972.12,748.38z M969.56,758.86c-1.37,0-2.73,0.46-4.1,0.46
		c-0.68,0.23-1.19,0.46-1.71,1.37c2.9,0,5.63-0.23,8.02-1.82C971.1,758.86,970.24,758.63,969.56,758.86z M969.73,765.24l-4.78-0.46
		c0.34,0.91,0.34,1.6,0.51,2.28C967.68,766.83,968.7,766.38,969.73,765.24z M969.73,770.7c-0.68-1.37-0.68-1.37-1.19-1.37
		l-3.25,1.59v0.23L969.73,770.7z M967.17,667.29l0.34-0.68c-0.51-0.46-1.19-0.91-1.88-0.68L967.17,667.29z M970.24,762.73
		c-0.68,0.23-1.19,0.46-1.71,0.46c2.39,1.14,2.56,1.14,3.58-1.14L970.24,762.73z M970.24,666.15l3.76,3.42
		c1.03,1.37,2.22,1.14,3.59,0.91C975.87,668.42,972.29,666.37,970.24,666.15z M975.02,691.89c-0.85-2.05-1.88-2.73-3.24-3.19
		C972.46,690.29,973.48,691.2,975.02,691.89z M975.53,757.26c-1.71-0.46-2.9,0.23-3.76,1.59
		C973.14,758.86,974.17,758.17,975.53,757.26z M977.75,678.45c-1.71-0.91-3.59-1.37-5.46-2.05c2.39,2.05,4.61,4.79,7.68,5.47
		C979.46,680.27,978.78,678.9,977.75,678.45z M977.75,662.5c1.19,0.23,2.56,1.14,3.76,0.23c-2.56-1.59-5.12-1.82-8.03-1.37
		C974.85,661.82,976.22,662.27,977.75,662.5z M974,675.49c-0.17,0.23-0.17,0.46-0.17,0.46l1.54,0.68v-0.46L974,675.49z M974,686.65
		c1.88,1.14,3.93,1.82,5.98,2.51c-1.88-0.91-3.76-2.05-5.64-3.19L974,686.65z M975.19,762.05c-0.17,0.46-0.51,0.68-1.03,1.37
		c2.39-0.91,2.56-0.91,2.22-2.51L975.19,762.05z M979.46,667.74c-1.54-0.68-2.9-1.37-4.44-1.82v0.23c1.19,1.14,2.56,2.05,3.93,2.96
		C979.12,668.65,979.12,668.2,979.46,667.74z M975.53,746.78l0.34,0.46c0.34-0.46,0.68-0.91,1.03-1.14
		c-0.17-0.23-0.17-0.46-0.34-0.46L975.53,746.78z M978.61,693.71c0.17-1.14,0-1.82-1.02-1.82L978.61,693.71z M985.61,758.63
		l-6.83,7.29l-1.02,1.37c4.27-1.82,7.17-5.24,10.41-8.66C986.97,757.49,986.29,757.72,985.61,758.63z M984.07,732.43
		c-1.88,3.19-3.59,6.61-5.81,10.25c0.68-0.23,1.2-0.23,1.37-0.46c1.88-2.96,3.41-6.15,4.78-9.57
		C984.24,732.66,984.07,732.43,984.07,732.43z M980.48,709.43c0.34-0.91,0.17-1.59-0.51-2.05L980.48,709.43z M980.66,693.94
		c-0.17,0-0.34,0-0.34,0.23c0.34,1.82,0.34,3.87,2.05,5.24C981.68,697.58,981.17,695.76,980.66,693.94z M981.34,669.34
		c0.51,1.82,1.19,1.82,2.22,1.59L981.34,669.34z M983.9,669.11c-0.51-1.6-1.2-2.28-2.39-1.6L983.9,669.11z M983.05,679.81
		c-0.17-0.23-0.68-0.23-1.19-0.46c0,0.23,0,0.46-0.17,0.46c1.02,1.37,1.37,3.42,2.9,4.56C984.75,682.32,983.73,681.18,983.05,679.81
		z M982.7,754.76c0.17,0.23,0.34,0.23,0.34,0.45c0,1.14,0.17,2.05,0.17,3.19c1.03-0.91,1.88-2.05,2.73-3.19
		c-0.34-0.68-0.85-1.14-1.37-1.82L982.7,754.76z M984.75,674.8c-0.51-1.59-0.51-1.59-1.71-1.37L984.75,674.8z M983.39,713.53
		c0.17,2.28-0.34,4.55,0.85,6.83C984.75,716.26,984.58,714.67,983.39,713.53z M984.58,742.69c0.51-0.68,1.03-1.37,1.37-2.28
		c-1.2-0.45-1.2-0.45-2.22,0.68L984.58,742.69z M985.09,724.01h0.34l0.51-6.15c0.17-0.46-0.17-0.68-0.17-1.14h-0.34L985.09,724.01z
		 M985.61,684.6c0,2.73,0.17,2.96,1.88,3.41L985.61,684.6z M988.34,678.22c0.34-0.68,0.51-0.91,0.85-1.14l-1.71-2.28
		c-0.17,0-0.17,0-0.34,0.23L988.34,678.22z M989.88,679.58c-0.68,2.28-0.34,3.19,1.71,4.56L989.88,679.58z M990.22,743.82
		c0.17,0.23,0.17,0.23,0.34,0.23c0.68-1.14,1.37-2.51,2.22-3.65c0.68-1.14,1.02-2.51,0.51-4.1L990.22,743.82z M997.05,744.28
		c0.85-2.28,1.54-4.78,2.22-7.29l2.05-7.52h-1.54c0.68,1.37,0.34,2.28-0.17,3.19c-1.54,3.42-2.9,7.06-3.59,10.71
		c-0.17,0.91-0.85,3.87-1.71,4.33c-1.37,0.91-1.71,2.96-2.22,4.55C994.14,750.2,996.02,747.47,997.05,744.28z M993.97,714.67
		c0.68-3.87,0.85-7.74,0.85-11.85c-0.17-2.96-0.68-5.47-2.56-7.74C992.95,701.91,993.46,708.29,993.97,714.67z M993.29,727.19
		c0.17,0,0.34,0.23,0.51,0.23l0.51-3.19h-0.34L993.29,727.19z M993.97,684.83c0.68,3.87,2.05,7.29,2.9,10.93
		c0.85-0.68,0.68-1.6,0.51-2.51c-0.34-1.6-0.68-3.19-1.2-4.56c-0.51-1.59-1.19-2.73-1.88-4.1
		C994.31,684.6,994.14,684.83,993.97,684.83z M997.39,675.49c0.17-1.6-0.85-2.73-1.71-3.87c0.34,1.37,0.85,2.73,1.37,4.1
		C997.22,675.71,997.39,675.71,997.39,675.49z M1000.63,684.37c-0.68-2.28-1.37-4.56-2.22-6.83c-0.34,0-0.68,0.23-1.19,0.46
		c1.19,2.28,2.22,4.33,3.07,6.38H1000.63z M1001.32,702.14h-0.51l0.51,5.01h0.51L1001.32,702.14z"/>
	<path class="st4" d="M1396.75,566.59h1.07c3.22-4.3,5.37-8.58,7.52-11.8c3.22,3.22,6.43,5.37,9.66,8.58c0,0,0,1.07,2.15,2.15
		c1.07-3.22,1.07-5.36,3.22-7.51c1.07-1.07,4.28-2.15,6.43-3.22c2.15,3.22,4.3,5.37,6.45,8.58c6.43-1.07,12.88,0,18.24-5.36
		c2.15-1.07,6.45,0,11.82,1.07c0-1.07,0-2.15,1.06-3.22c3.22-5.37,6.45-6.45,9.67-2.15c3.22,5.37,6.43,5.37,10.73,5.37
		c7.51,0,15.03,1.07,22.53,2.15l22.55,3.21c-4.3,10.74-15.03,5.37-21.47,10.74c7.52,6.43,15.03,11.8,20.4,19.31
		c7.51,8.59,13.95,18.25,20.38,27.9c10.73,19.32,20.4,38.63,31.13,56.88c6.45,11.8,13.95,22.53,21.46,32.2
		c8.59,12.88,15.03,24.68,20.4,38.63c7.51,17.17,16.1,33.26,25.76,48.29c7.52,10.74,12.88,22.55,18.25,34.35
		c4.28,10.73,10.73,21.46,18.24,31.13c11.82,13.95,22.55,28.97,30.05,46.14c1.07,1.07,2.15,3.22,4.3,5.37
		c3.22-8.59,7.51-17.18,10.73-24.68c5.37-16.1,10.73-32.2,18.25-48.3c17.18-41.86,35.41-110.54,40.78-156.68
		c5.36-35.42,19.31-69.76,30.05-104.11c1.07-3.22,3.21-7.51-1.07-10.73c-3.22-3.22-1.07-6.45,2.15-7.52
		c2.14-2.14,5.36-3.21,9.66-4.28c-3.22-2.15-5.37-3.22-7.52-5.37c-1.06-1.07-4.28-4.3-3.21-5.36c0-2.15,3.21-5.37,5.36-5.37
		c4.3-2.15,8.59-2.15,12.88-2.15c6.45,1.07,10.74-1.07,15.03-7.51c1.07-3.22,4.3-5.37,7.52-7.52c4.28-3.22,8.58-1.07,9.66,5.37
		c0,3.22-1.07,6.43-1.07,9.66c3.22,1.07,5.37,2.15,8.58,2.15l41.86,3.22c6.45,0,11.82,1.07,18.25,2.15c3.22,0,5.37,2.14,7.52,4.28
		c3.21,2.15,3.21,6.45,7.51,6.45c4.3,1.07,4.3,4.28,3.22,8.58c-6.45,44.01-11.8,89.08-23.62,133.08c-1.06,5.37-2.14,10.74-4.28,16.1
		c-6.45,26.83-13.95,54.73-21.47,81.56c-15.03,51.53-30.04,103.04-46.14,154.55c-15.03,50.44-30.05,99.81-53.66,147.03
		c-13.95,26.83-34.35,50.45-52.6,75.13c-47.21,56.88-103.02,91.22-180.29,91.22c-9.67,0-18.25-1.07-27.9-2.15
		c-13.95-3.21-28.98-3.21-41.86-7.51c-30.05-8.58-54.73-24.68-74.06-48.3c0-1.06-1.07-2.14-2.15-3.21
		c-7.51-6.45-7.51-6.45-5.36-15.03c0-1.07,0-2.15,1.06-4.3c-6.43,1.07-9.66-2.15-8.58-9.66c-3.22,4.28-5.36,6.43-7.51,10.73
		c-1.07-3.22-2.15-5.37-1.07-7.51c8.58-26.83,20.38-53.67,36.49-77.28c2.15-3.22,5.37-6.43,3.22-12.88c-1.07-2.15,0-6.43,2.15-7.51
		c2.15-1.07,6.43-1.07,8.58,0c5.37,3.21,9.66,6.43,16.1,10.73c-1.07-4.3-1.07-6.45-1.07-9.66c0-6.45,4.3-9.67,9.66-6.45
		c9.67,5.37,19.32,10.73,28.98,15.03c3.22,2.15,8.59,3.22,12.88,3.22c13.95,1.07,26.83,1.07,40.78,4.28c9.67,2.15,20.4,0,30.05-5.36
		c15.03-9.66,31.13-17.17,48.3-22.55c-1.07-3.21-2.15-5.36-4.3-7.51c-16.1-20.4-33.28-40.78-48.3-61.18
		c-6.43-8.58-11.8-19.31-17.16-30.04c-35.42-53.66-68.69-111.62-89.08-172.8c-6.43-18.24-12.88-36.49-23.61-53.66
		c-23.61-36.49-47.23-72.98-69.76-109.47c-6.45-10.73-9.66-21.46-13.95-32.2c-1.07-1.06-1.07-2.14-1.07-2.14
		c-2.15-11.82,0-13.95,11.8-16.1C1380.66,568.74,1380.66,568.74,1396.75,566.59z M1404.27,590.2c1.07,0,2.15-1.06,2.15-1.06
		c-1.07-2.15-2.15-3.22-4.3-5.37C1401.05,588.06,1401.05,590.2,1404.27,590.2z M1418.22,614.89c-2.15-4.3-2.15-10.74-10.73-11.8
		c4.28,5.36,6.43,9.66,9.66,12.88L1418.22,614.89z M1452.56,682.5c2.15-6.45,2.15-12.88-2.15-17.17c-5.36-4.3-11.8-8.58-18.24-12.88
		c4.28,8.58,8.58,16.1,12.88,23.61c2.15,4.3,5.36,8.59,2.15,13.95c-2.15,2.15,1.07,6.45,2.15,10.73
		C1451.48,693.23,1450.41,687.86,1452.56,682.5z M1456.85,649.23c-6.45-13.95-9.66-28.98-19.32-41.86h-2.14
		c6.43,15.03,12.88,28.98,19.31,42.93C1455.78,650.3,1455.78,650.3,1456.85,649.23z M1447.2,592.34c4.28,0,7.51-1.07,11.8-1.07
		c-2.15-5.36-4.3-8.58-5.37-12.88c-4.28,1.07-8.58,1.07-12.88,2.15C1442.9,584.84,1445.05,589.13,1447.2,592.34z M1453.63,1214.82
		c6.45,4.3,12.88,7.51,18.25,10.73C1462.23,1213.75,1461.15,1212.68,1453.63,1214.82z M1466.51,612.74
		c-1.07-2.15-5.36-2.15-7.51-3.22c-1.07,1.07-1.07,1.07-1.07,2.15c5.37,8.58,10.73,16.1,17.17,23.61
		C1476.18,625.62,1470.81,619.17,1466.51,612.74z M1474.03,699.67c7.51,15.03,13.95,30.05,21.46,44.01c0,1.07,1.07,1.07,2.15,1.07
		c-7.51-17.18-15.03-33.26-23.61-50.44C1472.96,696.46,1472.96,698.6,1474.03,699.67z M1475.1,1113.94
		c8.58,8.59,13.95,22.55,30.04,23.62C1492.27,1123.6,1483.68,1116.08,1475.1,1113.94z M1490.13,1148.29l-11.82-11.8
		c-1.06,1.07-1.06,2.15-2.14,2.15c4.28,4.28,7.51,8.58,11.8,11.8L1490.13,1148.29z M1480.46,668.55
		c-2.15,11.8-1.07,22.53,9.67,34.34C1485.83,690.01,1482.61,679.28,1480.46,668.55z M1482.61,605.22c-1.07,1.07-1.07,1.07-2.15,1.07
		c3.22,6.45,3.22,13.95,11.8,17.17C1489.06,618.1,1485.83,611.67,1482.61,605.22z M1490.13,1214.82
		c13.95,16.1,16.09,16.1,24.68,13.95c-8.59-5.37-16.1-10.73-23.62-16.1C1491.19,1213.75,1490.13,1213.75,1490.13,1214.82z
		 M1504.08,1192.29h-7.52c10.73,8.58,19.32,18.24,32.2,18.24c3.22,0,6.43-1.07,10.73-2.15
		C1526.62,1204.09,1516.96,1194.43,1504.08,1192.29z M1509.44,1165.46c-3.22-2.15-4.3-6.45-11.8-4.3c4.3,3.22,7.51,5.37,10.73,6.43
		C1508.37,1166.53,1508.37,1166.53,1509.44,1165.46z M1536.27,780.17c-2.15-8.59-5.36-17.17-7.51-25.76
		c-1.07-4.3-1.07-10.74,1.07-12.89c4.28-5.36,2.15-9.66,0-13.95c-9.67-16.09-20.4-32.19-31.13-47.21
		C1508.37,714.69,1520.17,747.97,1536.27,780.17z M1506.22,757.62c-2.14-4.28-4.28-7.51-7.51-10.73c0,5.37,3.22,7.52,5.37,11.8
		C1505.14,758.7,1505.14,758.7,1506.22,757.62z M1558.82,698.6c-6.45-19.32-13.95-38.65-20.4-57.96
		c-5.37-16.1-12.88-30.05-22.53-42.93c-3.22-3.22-6.45-7.52-9.67-10.73l-2.14,2.15c18.24,37.56,31.11,78.34,55.8,113.75
		C1559.88,700.74,1559.88,699.67,1558.82,698.6z M1520.17,680.35c-2.14-3.22-4.28-3.22-7.51,0c10.73,20.38,19.32,31.13,26.83,32.2
		C1531.99,701.81,1525.54,691.08,1520.17,680.35z M1519.1,1125.74c1.07,4.3,3.22,7.52,8.59,6.45
		C1524.47,1130.04,1522.32,1127.89,1519.1,1125.74z M1567.4,893.92c-7.52-13.95-16.1-27.9-23.61-40.78
		c-3.22-4.28-6.45-7.51-9.67-10.73c-1.07,0-2.14,1.07-2.14,1.07c11.8,22.53,23.61,46.15,37.56,68.69
		C1571.69,904.66,1570.62,899.29,1567.4,893.92z M1552.37,1132.18c-4.3-6.45-11.8-9.66-18.25-11.8
		C1543.79,1130.04,1544.86,1131.11,1552.37,1132.18z M1562.03,1201.95c-8.58-2.15-15.03-3.22-21.46-4.3
		C1550.22,1209.45,1550.22,1209.45,1562.03,1201.95z M1545.94,1113.94l9.66,6.45c5.36,2.15,6.43-1.07,7.51-5.37
		c-6.43-1.07-10.73-2.15-16.1-3.22C1547,1112.86,1545.94,1113.94,1545.94,1113.94z M1571.69,888.56c3.21,5.36,6.43,6.43,12.88,3.22
		c-10.74-23.62-20.4-47.23-31.13-70.84c-1.07,1.07-1.07,1.07-2.15,1.07c1.07,5.36,2.15,10.73,4.3,15.01c1.07,5.37,0,10.74-4.3,15.03
		C1557.74,864.94,1565.25,876.76,1571.69,888.56z M1555.59,1178.34l28.98,9.66c-8.59-7.52-18.25-10.73-27.9-13.95
		C1556.67,1175.12,1556.67,1176.19,1555.59,1178.34z M1639.31,904.66c-3.22-8.59-6.45-16.1-10.74-23.62
		c-23.61-40.78-47.21-81.56-71.9-122.35C1560.95,785.53,1617.84,883.19,1639.31,904.66z M1593.15,804.85c0,0,1.07-1.07,2.15-1.07
		c-4.3-5.37-3.22-15.03-13.95-18.25C1585.65,793.05,1589.93,799.48,1593.15,804.85z M1597.45,1247.03
		c27.9-2.15,53.66-13.95,79.42-24.69c9.66-3.21,17.17-10.73,25.76-19.31c-4.3,0-7.51-1.07-9.66,0c-3.22,1.07-6.45,3.22-10.73,5.36
		c-31.13,16.1-63.33,31.13-98.74,38.65H1597.45z M1587.78,727.57c4.3,8.59,8.59,16.1,11.82,23.62c1.07,1.07,2.14,2.15,3.21,2.15
		C1600.67,743.67,1595.3,735.09,1587.78,727.57z M1629.64,1213.75v-2.15c-13.95-1.07-27.9,2.15-41.86,8.59L1629.64,1213.75z
		 M1614.63,966.91c-7.52-7.51-11.82-17.17-18.25-25.76c7.51,21.46,17.18,41.86,28.98,60.11
		C1624.28,989.44,1623.21,977.64,1614.63,966.91z M1628.57,1135.41c-10.73,3.22-19.31,6.43-30.04,9.66
		C1610.33,1149.36,1618.91,1146.14,1628.57,1135.41z M1655.41,1090.33c1.06-1.07,1.06-3.22,1.06-6.43
		c-6.43,4.28-11.8,7.51-17.16,9.66c-5.37,3.22-11.8,5.36-19.32,9.66C1632.86,1103.21,1645.74,1098.91,1655.41,1090.33z
		 M1704.77,942.22c3.22-1.07,5.37-3.22,3.22-6.45c-3.22-5.36-5.37-9.66-8.59-15.03c-7.51-16.09-16.09-32.19-28.98-45.07
		c-5.36-6.45-9.66-13.95-12.88-20.4c-5.36-9.66-9.66-19.31-13.95-28.98c-2.14-4.28-3.21-9.66-9.66-9.66
		C1638.23,833.83,1694.04,933.63,1704.77,942.22z M1659.69,1052.77c1.07-2.15,2.15-4.3,1.07-5.37
		c-6.43-15.03-12.88-31.13-21.46-48.29c-2.15,8.58-3.22,13.95-5.37,20.38C1642.52,1030.22,1647.89,1043.1,1659.69,1052.77z
		 M1657.54,1139.69c-5.36,4.3-10.73,9.67-15.03,13.95c2.15,3.22,4.3,5.37,7.52,6.45c7.51-4.3,6.43-12.88,9.66-19.32
		C1658.62,1140.77,1657.54,1139.69,1657.54,1139.69z M1662.92,984.08c-3.22-7.52-5.37-16.1-15.03-22.55
		C1651.11,971.2,1656.47,978.71,1662.92,984.08z M1670.42,1033.44c0-7.51-6.43-11.8-11.8-16.1c3.22,6.45,5.37,11.82,8.59,17.17
		C1668.29,1034.52,1669.36,1034.52,1670.42,1033.44z M1689.75,1033.44c-10.73,12.88-12.88,20.4-8.58,28.98
		C1688.67,1050.62,1691.89,1039.89,1689.75,1033.44z M1689.75,1126.81l3.22-6.43l-1.07-1.07c-1.07,2.15-3.22,4.3-4.3,6.43
		C1688.67,1126.81,1688.67,1126.81,1689.75,1126.81z M1724.1,1153.64c4.28-9.66,7.51-17.16,7.51-28.97
		c-11.8,16.09-22.53,30.04-34.35,43.99C1710.14,1168.67,1713.35,1155.79,1724.1,1153.64z M1728.38,1099.98
		c0,1.07,1.07,1.07,1.07,2.15c12.88-8.58,19.32-20.38,19.32-38.63C1741.26,1077.45,1734.82,1089.25,1728.38,1099.98z
		 M1736.97,912.17c-2.15,4.3-3.22,8.58-5.37,13.95h2.15c1.07-4.3,3.22-8.58,5.36-12.88
		C1738.05,912.17,1738.05,912.17,1736.97,912.17z M1769.16,1086.03c1.07-2.14-1.07-5.36-2.15-9.66
		c-7.51,9.66-11.8,18.25-18.24,25.76c-8.59,9.66-10.73,20.4-9.67,34.35C1752,1119.31,1761.66,1103.21,1769.16,1086.03z
		 M1784.19,770.5c-8.58,37.57-20.38,75.13-35.41,111.62C1767.01,846.71,1782.04,810.21,1784.19,770.5z M1849.65,944.37
		c-7.51,15.03-15.03,30.04-20.38,46.14c-8.58,21.47-17.18,44.01-25.76,66.54c-1.07,3.22-3.22,7.52-5.37,8.59
		c-5.36,2.15-6.43,5.36-7.51,9.66c-6.45,13.95-12.88,27.9-20.4,42.93c-4.3,8.58-9.66,18.25-15.03,26.83
		C1802.44,1090.33,1830.34,1014.13,1849.65,944.37z M1804.59,897.14c-4.3,6.45-8.59,12.88-10.74,19.32
		c-3.21,6.43-4.28,13.95-5.36,20.38c-2.15,6.45-3.22,13.95-5.37,20.4c9.67-19.32,19.32-38.63,23.62-59.03
		C1805.66,898.22,1804.59,897.14,1804.59,897.14z M1799.21,705.04c9.66-22.53,19.32-62.24,19.32-89.07
		C1809.94,643.87,1802.44,673.91,1799.21,705.04z M1809.94,785.53c-2.15,10.73-4.28,20.4-7.51,30.05c1.07,0,1.07,1.07,2.15,1.07
		c3.21-10.73,6.43-20.4,8.58-30.05C1812.09,786.6,1811.02,785.53,1809.94,785.53z M1821.75,911.1c4.3-1.07,7.52-3.22,4.3-10.73
		C1823.9,905.73,1822.82,908.95,1821.75,911.1z M1834.63,786.6c-4.28,11.8-11.8,22.55-9.66,36.5
		C1829.27,811.28,1832.49,798.4,1834.63,786.6z M1831.42,550.49c3.21,3.22,6.43,7.52,9.66,0H1831.42z M1848.58,690.01
		c-3.21,9.66-5.36,18.25-7.51,26.83C1848.58,708.26,1850.73,700.74,1848.58,690.01z M1848.58,580.54c6.45,0,5.37-4.3,4.3-7.51
		C1851.8,575.18,1850.73,577.32,1848.58,580.54z M1862.53,579.47c1.07-4.28,2.15-6.43,4.3-10.73
		C1861.47,573.03,1861.47,573.03,1862.53,579.47z M1874.35,569.81c-3.22,8.58-7.52,16.1-8.59,26.83
		c13.95-4.3,15.03-17.18,20.4-26.83H1874.35z M1878.63,843.48c1.07-2.15,3.22-4.3,3.22-6.45c16.1-53.66,30.05-106.25,44.01-159.91
		c1.07-8.58,2.15-17.17,4.3-25.76h-3.22C1910.83,714.69,1893.66,779.09,1878.63,843.48z M1890.43,752.26
		c1.07-3.22,2.15-7.52,2.15-10.74c-2.15,3.22-3.21,6.45-4.28,9.67C1889.37,752.26,1889.37,752.26,1890.43,752.26z M1939.81,575.18
		c2.15-9.67-2.15-12.89-10.73-10.74c-3.22,1.07-7.52,2.15-11.82,2.15c-4.28,1.07-9.66,1.07-13.95,1.07
		c-4.28,9.66-4.28,11.8-2.14,20.4l6.43-9.67c3.22-2.15,6.45-4.28,9.66-1.07c4.3,2.15,2.15,5.37,1.07,8.59
		c-2.14,6.43-5.36,13.95-8.58,20.38c-1.07,6.45-3.22,12.88-4.3,18.25c6.45-2.15,7.52-7.51,9.67-12.88
		c2.14-8.58,4.28-17.17,7.51-24.68c4.3-10.74,4.3-10.74,17.18-8.59V575.18z M1937.66,593.42c-2.15,4.3-5.37,8.59,0,12.88V593.42z"/>
	<path class="st5" d="M1319.36,777.41l-4.94,62.16c0,0-0.98,0.99-1.96,1.98c-10.86-13.81-9.88-30.59-11.84-46.38l-5.93,34.54
		c-0.99,4.93-3.95,10.85,0.99,16.77c1.98,1.98,0,6.91-3.95,7.9c-14.8,5.91-28.62,10.85-44.39,7.89h-6.91
		c-10.85,0.99-22.69,1.98-34.53,1.98c0,1.98,0,3.95-0.99,5.91c0,3.95-0.99,5.93-4.94,5.93c-3.94-0.99-3.94-2.96-3.94-5.93
		c-0.99-3.94-0.99-6.9-0.99-10.85c-4.94-1.98-9.86-2.96-13.81-4.93c-1.98-0.99-3.95-3.95-3.95-4.94c0.99-1.98,2.96-3.95,4.94-4.94
		c3.95-0.99,7.89,0,11.84-0.99v-8.88c-0.99,0-0.99,0.99-1.98,0.99c-7.89,4.94-11.84,2.96-12.83-4.94c0-13.8-0.99-26.63-0.99-39.46
		c0-3.95,0-6.91-3.94-9.88c-1.98-0.99-1.98-4.93-1.98-7.89c-0.99-22.69-0.99-44.39,2.95-66.11c1.98-10.85,0.99-21.7,0.99-33.54
		v-49.33c-0.99-30.59-1.96-61.17-1.96-91.76c0-37.49,0-74,1.96-110.5c0.99-37.49,2.96-74.99,5.93-113.47
		c2.96-42.43,1.98-85.84,2.96-128.27l3.94-64.13c0-4.94,0.99-8.88-1.96-12.83c-2.96-3.95-1.98-6.9,1.96-8.88
		c3.95-2.96,7.9-5.93,12.83-5.93c5.93-0.99,8.89-3.94,9.88-7.89c1.96-4.94,4.93-5.93,8.88-6.91l45.38-3.94c7.9,0,16.78,0,25.65,0.99
		c7.9,0.99,14.8,2.95,21.72,7.89c1.96,1.98,4.93,3.95,7.89,4.94c3.95,0.99,6.9,1.96,6.9,5.91s-3.94,4.94-6.9,5.93
		c-0.99,0-1.98,0.99-2.96,0.99c4.94,45.38,4.94,90.76,2.96,136.16c-0.99,44.39-3.95,89.79-6.91,135.17l20.73-7.89
		c14.8-7.9,30.58-9.86,46.37-14.8c25.65-6.91,51.31-7.89,75.97-11.84c18.75-2.96,36.51,1.98,54.27,8.88
		c14.8,5.93,27.63,14.8,40.46,25.65c21.7,18.75,39.46,41.44,56.23,65.12c10.85,14.8,20.73,30.59,27.63,47.36
		c10.85,24.67,20.72,50.32,22.69,77.95c1.98,24.67,1.98,48.34,1.98,73.01c0,8.89-1.98,18.75-4.94,27.63
		c-7.89,28.62-21.7,54.27-41.43,75.97c-12.83,12.83-24.67,27.63-38.48,39.47c-23.68,22.69-51.31,39.47-83.87,44.39
		c-9.86,1.98-20.72,0.99-31.57,1.98c-16.78,1.98-33.54,0-50.32-3.94c-11.84-2.96-22.69-5.93-34.53-6.91
		c-18.75-2.96-33.55-13.81-47.37-24.67L1319.36,777.41z M1191.1,510.02h2.96c0-1.98,0.99-4.94,0.99-6.91c0-24.67,0.99-49.33,0-74
		c0-4.93-0.99-10.85-1.98-15.78c0,0-0.99,0-1.98,0.98V510.02z M1194.06,763.6c0,0,0,0,0.99,0v-4.94c-0.99,0-0.99,0-0.99,0V763.6z
		 M1199,261.39c-1.98,31.57-2.96,60.18-3.95,91.75l12.83-66.1c0.99-1.98,0.99-4.94,0.99-6.91L1199,261.39z M1197.02,610.66h-1.98
		c0,24.67,2.96,61.17,4.93,68.08l2.96-23.69c1.98-10.85,0-21.7-5.91-31.57V610.66z M1229.58,828.72l-2.96,9.86
		c-1.96,3.95-6.9,3.95-8.88,0.99l-2.96-7.9l-1.98-12.83c-3.94,5.93-4.93,16.78-3.94,25.65l25.65-1.96L1229.58,828.72z
		 M1224.65,743.86c-0.99-31.57,1.96-63.15-2.96-94.71C1217.74,681.7,1219.71,713.28,1224.65,743.86z M1260.17,880.03
		c-10.85,1.96-22.69,1.96-33.55,0c-3.94-0.99-6.9-1.98-6.9-7.9c9.86,6.91,20.72,5.93,30.59,4.94c10.85-0.99,20.72-2.96,29.59-4.94
		C1274.97,876.08,1268.06,878.05,1260.17,880.03z M1231.55,225.86c-4.94-34.53-1.98-69.06,0.99-103.59c-2.96,0-4.94-0.99-7.89-0.99
		C1224.65,156.8,1222.68,191.33,1231.55,225.86z M1229.58,427.14c5.93-35.52,0.99-70.05-1.98-105.57
		C1225.63,357.09,1222.68,391.62,1229.58,427.14z M1239.44,277.17c-3.94,2.96-1.96,6.91-0.99,9.88
		C1239.44,284.08,1239.44,281.12,1239.44,277.17z M1246.35,688.61c-0.99-24.67-1.98-50.32-3.95-76.96
		C1236.49,622.5,1236.49,630.39,1246.35,688.61z M1242.4,798.13h-1.98v4.94c0,0,0.99,0,1.98,0V798.13z M1241.42,708.34
		c0,0,0,0,0.99,0v-12.83c-0.99,0-0.99,0-0.99,0V708.34z M1241.42,755.7h0.99v-27.62h-0.99V755.7z M1248.33,704.39h-0.99v16.78h0.99
		V704.39z M1249.32,835.62c0,0-0.99,0-1.98,0v3.95c0.99,0,1.98,0,1.98,0V835.62z M1260.17,550.48c0-6.91-0.99-12.83-0.99-18.75
		c-0.99-35.52-1.98-71.04-0.99-106.55c0.99-21.72-3.95-44.41,3.95-65.12l-3.95-31.58c-1.98,1.98-2.96,2.96-2.96,3.95
		c0,19.73-1.98,38.48-1.98,58.21c0,18.75,0.99,37.49,0,55.26c0,24.67-2.95,48.34-2.95,72.02c0,11.84,2.95,22.69,7.89,32.57H1260.17z
		 M1265.09,324.53c0-19.74-1.98-38.48-5.91-57.23C1254.24,287.04,1261.16,305.78,1265.09,324.53z M1267.07,808.98
		c-7.89,1.98-4.93,5.93-2.96,8.88L1267.07,808.98z M1271.02,706.37h0.99c0,0,0,0,0.99,0c5.91-13.81,1.98-58.21-9.88-100.64
		L1271.02,706.37z M1275.95,87.73c0,0,0,0,0-0.99h-7.89c0,0.99,0,0.99,0,0.99H1275.95z M1284.83,83.79c0,0,0,0-0.99-0.99h-12.83
		c0,0.99,0,0.99,0,0.99H1284.83z M1273.98,141.01c0,0.99,0.99,1.98,2.95,2.96c2.96-17.76,1.98-24.67-3.94-27.63
		C1272.99,124.23,1272.99,133.12,1273.98,141.01z M1272.99,183.44c4.93-13.81,4.93-29.6,0-36.51V183.44z M1277.92,828.72
		c-0.99,3.94-2.95,7.89,1.98,11.84L1277.92,828.72z M1284.83,479.43c-4.94,5.93-4.94,6.91,0,16.78V479.43z M1283.85,240.66
		c-0.99,0-0.99,0-0.99,0c0,3.95-0.99,7.9-0.99,10.85c0,1.98,0.99,2.96,0.99,4.94c0,0,0,0,0.99,0V240.66z M1293.71,379.78
		c-2.96-16.77-5.91-32.55-7.89-48.34l-2.96-44.39c0,30.58-0.99,63.15,0.99,95.7L1293.71,379.78z M1282.86,460.69h0.99v-40.46h-0.99
		V460.69z M1285.82,506.07h-1.98c0,2.96,0.99,6.91,0.99,9.86h0.99V506.07z M1293.71,787.28c-5.91,4.94-5.91,5.91-2.96,16.78
		L1293.71,787.28z M1295.69,763.6c0.99,0,0.99,0,1.98-0.99l3.94-28.62c-10.85-7.89-7.89-19.73-10.85-29.6
		C1291.74,724.13,1293.71,743.86,1295.69,763.6z M1300.62,166.66c3.94-3.95,4.93-6.9,3.94-11.84c-0.99-5.93,0-11.84,0-17.76
		l-2.96-23.68h-2.95L1300.62,166.66z M1298.65,475.49c2.95-4.94,3.94-10.86,0-15.79V475.49z M1304.56,646.18
		c1.98-57.22-0.99-139.12-5.91-148v14.8c0,33.54,0.99,66.1,1.98,99.65c0,10.85,0.98,22.69,1.96,33.54
		C1303.57,646.18,1304.56,646.18,1304.56,646.18z M1308.51,92.66c0-0.99,0.99-0.99,0.99-1.98c-0.99,0-1.98-0.99-2.96-1.98h-3.95
		v0.99L1308.51,92.66z M1308.51,159.76c0,0,0.99,0,1.98,0c0-15.79-1.98-31.58-2.96-49.33c-1.98,2.95-2.96,2.95-2.96,3.94
		c0,12.83,0.99,25.65,0.99,37.49L1308.51,159.76z M1313.45,460.69c0.98,0.99,1.96,0.99,2.95,0.99l9.86-10.85
		c-1.96-10.86,4.94-12.83,12.83-14.8c5.93-1.98,7.9-3.95,10.86-12.83l-28.62,17.75c-6.91,3.95-8.88,7.9-7.89,15.79V460.69z
		 M1315.41,415.3l15.79-13.81c-7.89,2.96-13.81,5.93-17.75,12.83C1314.43,414.31,1314.43,415.3,1315.41,415.3z M1313.45,491.27
		c0.98,15.79,1.96,30.59,1.96,44.41c0.99,25.65,1.98,51.31,1.98,76.96c0,7.89,0.99,14.8,9.86,16.77c3.95,0.99,6.91,3.95,8.89,5.93
		c9.86,6.9,20.72,12.83,31.57,16.78l18.75,7.89c11.84,3.95,23.68,6.9,36.51,4.94c23.68-1.98,44.39-10.86,64.13-21.72
		c10.85-4.93,18.74-11.84,25.65-20.72c18.74-24.67,22.69-50.32,13.81-79.92c-7.9-23.68-22.7-42.42-39.47-59.2
		c-2.96-2.96-5.93-4.94-8.89-6.9c-10.85-3.95-21.7-9.88-33.54-12.83c-23.68-4.94-47.36-3.95-70.05,2.95L1313.45,491.27z
		 M1333.18,680.71v-0.99l-13.81-11.84c-0.99,9.88-2.96,19.74,0,29.6c6.9-4.94,2.96-11.84,4.94-18.74
		C1327.25,679.72,1330.22,680.71,1333.18,680.71z M1334.17,773.46l2.96-10.85c-0.99,0.99-1.98,0.99-1.98,1.98
		c-5.93-5.93-10.85-12.83-15.79-19.74C1314.43,760.64,1325.29,765.57,1334.17,773.46z M1334.17,733.01
		c5.91,3.95,9.86,7.9,13.81,10.85C1343.04,734.98,1342.05,733.99,1334.17,733.01z M1363.77,394.58c0.98,0,0.98-0.99,1.96-0.99
		c-10.85-4.94-11.84-3.95-15.78,2.96L1363.77,394.58z M1355.87,432.08l0.99,0.99c2.96-2.96,7.89-3.95,6.91-10.85L1355.87,432.08z
		 M1358.83,373.87v2.95c5.91,0.99,11.84-0.99,19.73-2.95H1358.83z M1358.83,778.4c1.98,0.99,3.95,1.96,5.91,1.96c0,0,0,0,0.99-0.98
		c-1.96,0-3.94-0.99-4.93-1.98C1359.82,777.41,1359.82,778.4,1358.83,778.4z M1365.73,384.72c5.93,1.98,11.84,3.94,17.76-3.95
		C1376.6,381.76,1370.67,382.74,1365.73,384.72z M1378.56,429.11c-7.89-3.94-7.89-3.94-11.84,5.93L1378.56,429.11z M1379.55,418.26
		c2.96,1.98,5.93,4.94,8.89,0H1379.55z M1417.04,409.38c-3.94-2.96-7.89-4.94-12.83-6.91c-6.9-3.94-14.8-0.99-20.72,8.89
		L1417.04,409.38z M1391.39,445.89c0,0.99,0,0.99,0,0.99h7.9c0,0,0,0,0-0.99H1391.39z M1396.33,382.74v1.98l7.89-2.96v-1.98
		L1396.33,382.74z M1398.3,707.35c-0.99,0.99-0.99,0.99-0.99,1.98c5.91,6.91,5.91,6.91,14.8,3.95L1398.3,707.35z M1415.07,356.1
		l-15.78,2.96v1.98c4.93,0,10.85-0.99,15.78-1.98V356.1z M1418.03,692.55c2.96-2.95,5.93-4.93,9.86-6.9h-20.72L1418.03,692.55z
		 M1444.67,403.46c-10.85-0.99-21.7-2.95-32.55-4.93C1421.98,406.42,1432.83,407.41,1444.67,403.46z M1413.1,733.01
		c0,0.99-0.99,1.98-0.99,1.98l35.52,22.69c-0.99-3.94-0.99-6.9-0.99-8.88L1413.1,733.01z M1461.45,796.15l-48.34-2.96
		c3.94,1.98,8.88,3.95,13.81,4.94c5.91,0,7.89,3.95,9.86,7.89h20.72L1461.45,796.15z M1423.95,395.57
		c5.91,0.99,11.84,1.98,17.75,1.98C1435.79,393.6,1429.87,393.6,1423.95,395.57z M1494,463.65c0-0.99,0.99-1.98,0.99-1.98
		c-3.95-2.96-6.9-5.93-10.85-7.9c-17.76-11.84-38.48-9.86-58.21-10.85L1494,463.65z M1479.2,356.1c0-0.99,0-1.98,0-1.98
		c-4.93-0.99-9.86-0.99-14.79-0.99c-4.94,0-10.86-0.99-15.79,0c-4.94,0-9.86-1.98-13.81,2.96H1479.2z M1466.37,381.76
		c-4.93-6.9-5.91-6.9-13.81-1.98L1466.37,381.76z M1458.48,413.34c10.85,1.96,19.73,7.89,31.58,4.93
		C1480.19,410.37,1470.32,407.41,1458.48,413.34z M1493.01,750.77c-8.88-0.99-14.8,3.94-19.73,10.85
		C1488.09,763.6,1492.03,759.65,1493.01,750.77z M1481.18,731.03c-6.9,0.99-6.9,0.99-6.9,7.9L1481.18,731.03z M1508.8,380.77
		l-22.69-13.81l-7.9,9.86l8.89,8.89c3.94-2.96,6.9-2.96,10.85,0c3.95,2.95,8.88,3.94,14.8,5.91
		C1512.75,382.74,1512.75,382.74,1508.8,380.77z M1498.94,786.29c-11.84,1.98-11.84,1.98-17.76,9.86L1498.94,786.29z
		 M1512.75,371.89c0-0.99,0.99-2.96,0.99-3.95c-7.9-2.96-13.81-7.89-23.68-6.9c3.94,8.88,12.83,10.85,19.73,16.77L1512.75,371.89z
		 M1498.94,741.9c0,0,0-0.99-0.99-1.98c-1.98,0.99-3.95,2.95-5.93,4.93C1496.96,746.82,1498.94,747.81,1498.94,741.9z
		 M1496.96,801.09c5.93-0.99,11.84-2.96,16.78-4.94c9.86-2.96,17.75-6.9,19.73-19.73L1496.96,801.09z M1515.71,405.43l1.98-1.98
		l-3.94-2.95c0,0-0.99,0-0.99,0.98L1515.71,405.43z M1519.66,758.66c6.91,0,7.9-4.93,8.88-9.86L1519.66,758.66z M1522.62,404.45
		c2.96,9.86,8.88,18.75,17.76,24.67C1536.43,418.26,1528.53,407.41,1522.62,404.45z M1522.62,640.27c3.95,3.94,6.9,2.95,10.85,0
		c7.89-5.93,9.86-13.81,14.8-21.72c3.95-6.9,2.96-12.83,0-21.7L1522.62,640.27z M1529.52,377.81c0,0.99-0.99,0.99-1.96,1.98
		c4.93,3.95,5.91,10.85,15.78,10.85L1529.52,377.81z M1551.23,688.61c-4.94,5.91-10.85,11.84-16.78,16.77
		C1543.33,703.41,1548.27,696.5,1551.23,688.61z M1545.31,561.33c3.95-7.9,2.96-11.84-2.96-17.76L1545.31,561.33z M1554.19,475.49
		c-3.94-5.93-6.9-9.88-9.86-12.83C1546.3,470.56,1546.3,470.56,1554.19,475.49z M1586.75,459.7c0-0.99,0.99-0.99,1.98-0.99
		l-2.96-7.89c-2.96-6.91-6.91-11.85-9.86-18.75c-2.96-7.89-9.86-9.86-16.78-9.86L1586.75,459.7z M1601.55,726.11
		c-3.95,0.99-8.89,0.99-10.85,3.94c-6.91,7.9-11.85,16.78-18.75,25.65c11.84-7.89,21.7-17.75,29.6-27.62V726.11z M1574.91,642.23
		c0-1.96,0-2.95,0.99-3.94c-0.99,0-0.99-0.99-1.98-0.99c0,1.98-0.99,2.96-0.99,3.94C1573.93,641.24,1573.93,641.24,1574.91,642.23z
		 M1575.9,492.26c3.94,4.94,1.98,14.8,14.8,14.8C1589.72,496.21,1580.83,496.21,1575.9,492.26z M1604.51,658.02
		c-8.88,14.8-8.88,14.8-15.78,11.84l-4.94,6.91c-1.98,2.95-4.94,6.9-3.95,8.88c3.95,6.9,0.99,12.83,0.99,20.72
		C1594.64,691.56,1603.53,673.81,1604.51,658.02z M1592.67,576.13c-0.99-35.53,0-35.53-7.89-46.38
		C1582.8,546.53,1586.75,569.22,1592.67,576.13z M1591.68,586.99c0,0-0.98,0-1.96,0.99l1.96,5.91c0.99,0,0.99-0.99,1.98-0.99
		L1591.68,586.99z M1647.92,620.53c7.89-59.2-20.72-145.03-53.28-179.58l5.93,15.79c5.91,13.81,10.85,27.63,16.77,40.46
		c0,0.99,0,1.98,0.99,1.98c12.83,16.77,15.79,37.49,18.75,57.22c3.95,19.74,4.93,40.46,2.96,60.18L1647.92,620.53z M1604.51,648.16
		c-7.89-0.99-9.86,1.98-7.89,15.79L1604.51,648.16z M1610.43,622.5c-0.99,3.95-1.98,6.9-1.98,9.86c0,0,0.99,0.99,1.98,0.99
		c0.99-2.96,1.98-6.9,1.98-9.86C1611.42,623.49,1611.42,623.49,1610.43,622.5z M1615.37,708.34c10.85-10.85,18.74-23.68,20.72-38.48
		L1615.37,708.34z M1629.18,596.85c-4.94,9.86-4.94,20.72-3.95,31.57C1628.2,618.55,1629.18,607.7,1629.18,596.85z"/>
</g>
</svg>
